<?xml version="1.0" encoding="utf-8" standalone="no"?>
<!DOCTYPE svg PUBLIC "-//W3C//DTD SVG 1.1//EN"
  "http://www.w3.org/Graphics/SVG/1.1/DTD/svg11.dtd">
<!-- Created with matplotlib (http://matplotlib.org/) -->
<svg height="338pt" version="1.1" viewBox="0 0 523 338" width="523pt" xmlns="http://www.w3.org/2000/svg" xmlns:xlink="http://www.w3.org/1999/xlink">
 <defs>
  <style type="text/css">
*{stroke-linecap:butt;stroke-linejoin:round;}
  </style>
 </defs>
 <g id="figure_1">
  <g id="patch_1">
   <path d="M 0 338.211353 
L 523.462353 338.211353 
L 523.462353 0 
L 0 0 
z
" style="fill:#ffffff;"/>
  </g>
  <g id="axes_1">
   <g id="patch_2">
    <path d="M 59.162353 295.1 
L 505.562353 295.1 
L 505.562353 17.9 
L 59.162353 17.9 
z
" style="fill:#ffffff;"/>
   </g>
   <g id="patch_3">
    <path clip-path="url(#p7cca4782da)" d="M 79.453262 295.1 
L 88.782416 295.1 
L 88.782416 294.305091 
L 79.453262 294.305091 
z
" style="fill:#d53e4f;stroke:#636363;stroke-linejoin:miter;"/>
   </g>
   <g id="patch_4">
    <path clip-path="url(#p7cca4782da)" d="M 91.114704 295.1 
L 100.443858 295.1 
L 100.443858 294.114156 
L 91.114704 294.114156 
z
" style="fill:#d53e4f;stroke:#636363;stroke-linejoin:miter;"/>
   </g>
   <g id="patch_5">
    <path clip-path="url(#p7cca4782da)" d="M 102.776146 295.1 
L 112.1053 295.1 
L 112.1053 293.104933 
L 102.776146 293.104933 
z
" style="fill:#d53e4f;stroke:#636363;stroke-linejoin:miter;"/>
   </g>
   <g id="patch_6">
    <path clip-path="url(#p7cca4782da)" d="M 114.437588 295.1 
L 123.766742 295.1 
L 123.766742 291.900879 
L 114.437588 291.900879 
z
" style="fill:#fc8d59;stroke:#636363;stroke-linejoin:miter;"/>
   </g>
   <g id="patch_7">
    <path clip-path="url(#p7cca4782da)" d="M 126.09903 295.1 
L 135.428184 295.1 
L 135.428184 288.756311 
L 126.09903 288.756311 
z
" style="fill:#fc8d59;stroke:#636363;stroke-linejoin:miter;"/>
   </g>
   <g id="patch_8">
    <path clip-path="url(#p7cca4782da)" d="M 137.760472 295.1 
L 147.089626 295.1 
L 147.089626 287.649672 
L 137.760472 287.649672 
z
" style="fill:#fc8d59;stroke:#636363;stroke-linejoin:miter;"/>
   </g>
   <g id="patch_9">
    <path clip-path="url(#p7cca4782da)" d="M 149.421914 295.1 
L 158.751068 295.1 
L 158.751068 286.882039 
L 149.421914 286.882039 
z
" style="fill:#fc8d59;stroke:#636363;stroke-linejoin:miter;"/>
   </g>
   <g id="patch_10">
    <path clip-path="url(#p7cca4782da)" d="M 161.083356 295.1 
L 170.41251 295.1 
L 170.41251 287.037903 
L 161.083356 287.037903 
z
" style="fill:#fc8d59;stroke:#636363;stroke-linejoin:miter;"/>
   </g>
   <g id="patch_11">
    <path clip-path="url(#p7cca4782da)" d="M 172.744798 295.1 
L 182.073952 295.1 
L 182.073952 284.649278 
L 172.744798 284.649278 
z
" style="fill:#fee08b;stroke:#636363;stroke-linejoin:miter;"/>
   </g>
   <g id="patch_12">
    <path clip-path="url(#p7cca4782da)" d="M 184.40624 295.1 
L 193.735394 295.1 
L 193.735394 283.078942 
L 184.40624 283.078942 
z
" style="fill:#fee08b;stroke:#636363;stroke-linejoin:miter;"/>
   </g>
   <g id="patch_13">
    <path clip-path="url(#p7cca4782da)" d="M 196.067682 295.1 
L 205.396836 295.1 
L 205.396836 281.719024 
L 196.067682 281.719024 
z
" style="fill:#fee08b;stroke:#636363;stroke-linejoin:miter;"/>
   </g>
   <g id="patch_14">
    <path clip-path="url(#p7cca4782da)" d="M 207.729124 295.1 
L 217.058278 295.1 
L 217.058278 279.887615 
L 207.729124 279.887615 
z
" style="fill:#fee08b;stroke:#636363;stroke-linejoin:miter;"/>
   </g>
   <g id="patch_15">
    <path clip-path="url(#p7cca4782da)" d="M 219.390566 295.1 
L 228.71972 295.1 
L 228.71972 278.874495 
L 219.390566 278.874495 
z
" style="fill:#fee08b;stroke:#636363;stroke-linejoin:miter;"/>
   </g>
   <g id="patch_16">
    <path clip-path="url(#p7cca4782da)" d="M 231.052008 295.1 
L 240.381162 295.1 
L 240.381162 277.771753 
L 231.052008 277.771753 
z
" style="fill:#fee08b;stroke:#636363;stroke-linejoin:miter;"/>
   </g>
   <g id="patch_17">
    <path clip-path="url(#p7cca4782da)" d="M 242.71345 295.1 
L 252.042604 295.1 
L 252.042604 274.96619 
L 242.71345 274.96619 
z
" style="fill:#e6f598;stroke:#636363;stroke-linejoin:miter;"/>
   </g>
   <g id="patch_18">
    <path clip-path="url(#p7cca4782da)" d="M 254.374892 295.1 
L 263.704046 295.1 
L 263.704046 274.085555 
L 254.374892 274.085555 
z
" style="fill:#e6f598;stroke:#636363;stroke-linejoin:miter;"/>
   </g>
   <g id="patch_19">
    <path clip-path="url(#p7cca4782da)" d="M 266.036334 295.1 
L 275.365488 295.1 
L 275.365488 271.057885 
L 266.036334 271.057885 
z
" style="fill:#e6f598;stroke:#636363;stroke-linejoin:miter;"/>
   </g>
   <g id="patch_20">
    <path clip-path="url(#p7cca4782da)" d="M 277.697776 295.1 
L 287.02693 295.1 
L 287.02693 269.514825 
L 277.697776 269.514825 
z
" style="fill:#e6f598;stroke:#636363;stroke-linejoin:miter;"/>
   </g>
   <g id="patch_21">
    <path clip-path="url(#p7cca4782da)" d="M 289.359218 295.1 
L 298.688372 295.1 
L 298.688372 267.699002 
L 289.359218 267.699002 
z
" style="fill:#e6f598;stroke:#636363;stroke-linejoin:miter;"/>
   </g>
   <g id="patch_22">
    <path clip-path="url(#p7cca4782da)" d="M 301.02066 295.1 
L 310.349814 295.1 
L 310.349814 262.278811 
L 301.02066 262.278811 
z
" style="fill:#e6f598;stroke:#636363;stroke-linejoin:miter;"/>
   </g>
   <g id="patch_23">
    <path clip-path="url(#p7cca4782da)" d="M 312.682102 295.1 
L 322.011256 295.1 
L 322.011256 253.682878 
L 312.682102 253.682878 
z
" style="fill:#99d594;stroke:#636363;stroke-linejoin:miter;"/>
   </g>
   <g id="patch_24">
    <path clip-path="url(#p7cca4782da)" d="M 324.343544 295.1 
L 333.672698 295.1 
L 333.672698 244.849251 
L 324.343544 244.849251 
z
" style="fill:#99d594;stroke:#636363;stroke-linejoin:miter;"/>
   </g>
   <g id="patch_25">
    <path clip-path="url(#p7cca4782da)" d="M 336.004986 295.1 
L 345.33414 295.1 
L 345.33414 232.824297 
L 336.004986 232.824297 
z
" style="fill:#99d594;stroke:#636363;stroke-linejoin:miter;"/>
   </g>
   <g id="patch_26">
    <path clip-path="url(#p7cca4782da)" d="M 347.666428 295.1 
L 356.995582 295.1 
L 356.995582 223.608802 
L 347.666428 223.608802 
z
" style="fill:#99d594;stroke:#636363;stroke-linejoin:miter;"/>
   </g>
   <g id="patch_27">
    <path clip-path="url(#p7cca4782da)" d="M 359.32787 295.1 
L 368.657024 295.1 
L 368.657024 209.545918 
L 359.32787 209.545918 
z
" style="fill:#99d594;stroke:#636363;stroke-linejoin:miter;"/>
   </g>
   <g id="patch_28">
    <path clip-path="url(#p7cca4782da)" d="M 370.989312 295.1 
L 380.318466 295.1 
L 380.318466 197.357306 
L 370.989312 197.357306 
z
" style="fill:#99d594;stroke:#636363;stroke-linejoin:miter;"/>
   </g>
   <g id="patch_29">
    <path clip-path="url(#p7cca4782da)" d="M 382.650754 295.1 
L 391.979908 295.1 
L 391.979908 180.044645 
L 382.650754 180.044645 
z
" style="fill:#99d594;stroke:#636363;stroke-linejoin:miter;"/>
   </g>
   <g id="patch_30">
    <path clip-path="url(#p7cca4782da)" d="M 394.312196 295.1 
L 403.64135 295.1 
L 403.64135 170.696665 
L 394.312196 170.696665 
z
" style="fill:#3288bd;stroke:#636363;stroke-linejoin:miter;"/>
   </g>
   <g id="patch_31">
    <path clip-path="url(#p7cca4782da)" d="M 405.973638 295.1 
L 415.302792 295.1 
L 415.302792 151.918877 
L 405.973638 151.918877 
z
" style="fill:#3288bd;stroke:#636363;stroke-linejoin:miter;"/>
   </g>
   <g id="patch_32">
    <path clip-path="url(#p7cca4782da)" d="M 417.63508 295.1 
L 426.964234 295.1 
L 426.964234 134.360729 
L 417.63508 134.360729 
z
" style="fill:#3288bd;stroke:#636363;stroke-linejoin:miter;"/>
   </g>
   <g id="patch_33">
    <path clip-path="url(#p7cca4782da)" d="M 429.296522 295.1 
L 438.625676 295.1 
L 438.625676 119.16393 
L 429.296522 119.16393 
z
" style="fill:#3288bd;stroke:#636363;stroke-linejoin:miter;"/>
   </g>
   <g id="patch_34">
    <path clip-path="url(#p7cca4782da)" d="M 440.957964 295.1 
L 450.287118 295.1 
L 450.287118 113.771015 
L 440.957964 113.771015 
z
" style="fill:#3288bd;stroke:#636363;stroke-linejoin:miter;"/>
   </g>
   <g id="patch_35">
    <path clip-path="url(#p7cca4782da)" d="M 452.619406 295.1 
L 461.94856 295.1 
L 461.94856 113.771015 
L 452.619406 113.771015 
z
" style="fill:#3288bd;opacity:0.75;stroke:#636363;stroke-linejoin:miter;"/>
   </g>
   <g id="patch_36">
    <path clip-path="url(#p7cca4782da)" d="M 452.619406 113.771015 
L 461.94856 113.771015 
L 461.94856 96.49997 
L 452.619406 96.49997 
z
" style="fill:url(#h2f33a94856);opacity:0.75;stroke:#636363;stroke-linejoin:miter;"/>
   </g>
   <g id="patch_37">
    <path clip-path="url(#p7cca4782da)" d="M 464.280848 295.1 
L 473.610002 295.1 
L 473.610002 113.771015 
L 464.280848 113.771015 
z
" style="fill:#3288bd;opacity:0.75;stroke:#636363;stroke-linejoin:miter;"/>
   </g>
   <g id="patch_38">
    <path clip-path="url(#p7cca4782da)" d="M 464.280848 113.771015 
L 473.610002 113.771015 
L 473.610002 77.58391 
L 464.280848 77.58391 
z
" style="fill:url(#h2f33a94856);opacity:0.75;stroke:#636363;stroke-linejoin:miter;"/>
   </g>
   <g id="patch_39">
    <path clip-path="url(#p7cca4782da)" d="M 475.94229 295.1 
L 485.271444 295.1 
L 485.271444 113.771015 
L 475.94229 113.771015 
z
" style="fill:#3288bd;opacity:0.75;stroke:#636363;stroke-linejoin:miter;"/>
   </g>
   <g id="patch_40">
    <path clip-path="url(#p7cca4782da)" d="M 475.94229 113.771015 
L 485.271444 113.771015 
L 485.271444 56.866151 
L 475.94229 56.866151 
z
" style="fill:url(#h2f33a94856);opacity:0.75;stroke:#636363;stroke-linejoin:miter;"/>
   </g>
   <g id="matplotlib.axis_1">
    <g id="xtick_1">
     <g id="line2d_1">
      <defs>
       <path d="M 0 0 
L 0 3.5 
" id="m9e23456315" style="stroke:#000000;stroke-width:0.8;"/>
      </defs>
      <g>
       <use style="stroke:#000000;stroke-width:0.8;" x="60.794955" xlink:href="#m9e23456315" y="295.1"/>
      </g>
     </g>
     <g id="text_1">
      <!-- $1985$ -->
      <defs>
       <path d="M 26.59375 63.40625 
C 26.59375 65.5 26.5 65.5 25.09375 65.5 
C 21.203125 61.1875 15.296875 59.796875 9.703125 59.796875 
C 9.40625 59.796875 8.90625 59.796875 8.796875 59.5 
C 8.703125 59.296875 8.703125 59.09375 8.703125 57 
C 11.796875 57 17 57.59375 21 59.984375 
L 21 7.203125 
C 21 3.6875 20.796875 2.5 12.203125 2.5 
L 9.203125 2.5 
L 9.203125 0 
C 14 0 19 0 23.796875 0 
C 28.59375 0 33.59375 0 38.40625 0 
L 38.40625 2.5 
L 35.40625 2.5 
C 26.796875 2.5 26.59375 3.59375 26.59375 7.15625 
z
" id="CMR17-49"/>
       <path d="M 35.203125 29.125 
C 35.203125 7.25 26.09375 0.484375 18.59375 0.484375 
C 16.296875 0.484375 10.703125 0.484375 8.40625 4.59375 
C 11 4.1875 12.90625 5.578125 12.90625 8.09375 
C 12.90625 10.8125 10.703125 11.703125 9.296875 11.703125 
C 8.40625 11.703125 5.703125 11.296875 5.703125 7.90625 
C 5.703125 1.109375 11.59375 -2 18.796875 -2 
C 30.296875 -2 42 10.53125 42 32.390625 
C 42 59.640625 30.796875 65.296875 23.203125 65.296875 
C 13.296875 65.296875 3.796875 56.6875 3.796875 43.40625 
C 3.796875 31.109375 11.90625 22 22.09375 22 
C 30.5 22 34.203125 29.734375 35.203125 33 
z
M 22.296875 23.59375 
C 19.59375 23.59375 15.796875 24.09375 12.703125 30.03125 
C 10.59375 33.890625 10.59375 38.453125 10.59375 43.296875 
C 10.59375 49.15625 10.59375 53.203125 13.40625 57.5625 
C 14.796875 59.640625 17.40625 63 23.203125 63 
C 35 63 35 45.078125 35 41.125 
C 35 34.09375 31.796875 23.59375 22.296875 23.59375 
z
" id="CMR17-57"/>
       <path d="M 27.203125 35.375 
C 33.5 38.546875 39.90625 43.328125 39.90625 50.984375 
C 39.90625 60.015625 31.09375 65.296875 23 65.296875 
C 13.90625 65.296875 5.90625 58.734375 5.90625 49.6875 
C 5.90625 47.203125 6.5 42.921875 10.40625 39.140625 
C 11.40625 38.15625 15.59375 35.171875 18.296875 33.28125 
C 13.796875 30.984375 3.296875 25.53125 3.296875 14.59375 
C 3.296875 4.359375 13.09375 -2 22.796875 -2 
C 33.5 -2 42.5 5.65625 42.5 15.78125 
C 42.5 24.84375 36.40625 29.015625 32.40625 31.703125 
z
M 14.09375 44.09375 
C 13.296875 44.59375 9.296875 47.671875 9.296875 52.359375 
C 9.296875 58.421875 15.59375 63 22.796875 63 
C 30.703125 63 36.5 57.4375 36.5 50.96875 
C 36.5 41.703125 26.09375 36.421875 25.59375 36.421875 
C 25.5 36.421875 25.40625 36.421875 24.59375 37.03125 
z
M 32.5 23.734375 
C 34 22.640625 38.796875 19.375 38.796875 13.296875 
C 38.796875 5.953125 31.40625 0.390625 23 0.390625 
C 13.90625 0.390625 7 6.84375 7 14.6875 
C 7 22.546875 13.09375 29.09375 20 32.1875 
z
" id="CMR17-56"/>
       <path d="M 11.40625 57.6875 
C 12.40625 57.28125 16.5 56 20.703125 56 
C 30 56 35.09375 61.109375 38 64.0625 
C 38 64.953125 38 65.5 37.40625 65.5 
C 37.296875 65.5 37.09375 65.5 36.296875 65.046875 
C 32.796875 63.40625 28.703125 62.078125 23.703125 62.078125 
C 20.703125 62.078125 16.203125 62.484375 11.296875 64.671875 
C 10.203125 65.171875 10 65.171875 9.90625 65.171875 
C 9.40625 65.171875 9.296875 65.0625 9.296875 63.078125 
L 9.296875 34.421875 
C 9.296875 32.640625 9.296875 32.140625 10.296875 32.140625 
C 10.796875 32.140625 11 32.34375 11.5 33.03125 
C 14.703125 37.515625 19.09375 39.40625 24.09375 39.40625 
C 27.59375 39.40625 35.09375 37.21875 35.09375 20.140625 
C 35.09375 16.953125 35.09375 11.171875 32.09375 6.578125 
C 29.59375 2.484375 25.703125 0.390625 21.40625 0.390625 
C 14.796875 0.390625 8.09375 5 6.296875 12.71875 
C 6.703125 12.609375 7.5 12.421875 7.90625 12.421875 
C 9.203125 12.421875 11.703125 13.125 11.703125 16.21875 
C 11.703125 18.90625 9.796875 20 7.90625 20 
C 5.59375 20 4.09375 18.59375 4.09375 15.796875 
C 4.09375 7.09375 11 -2 21.59375 -2 
C 31.90625 -2 41.703125 6.875 41.703125 19.75 
C 41.703125 31.71875 33.90625 41 24.203125 41 
C 19.09375 41 14.796875 39.109375 11.40625 35.53125 
z
" id="CMR17-53"/>
      </defs>
      <g transform="translate(50.832284 309.018498)scale(0.1 -0.1)">
       <use transform="scale(0.996264)" xlink:href="#CMR17-49"/>
       <use transform="translate(45.690477 0)scale(0.996264)" xlink:href="#CMR17-57"/>
       <use transform="translate(91.380954 0)scale(0.996264)" xlink:href="#CMR17-56"/>
       <use transform="translate(137.071431 0)scale(0.996264)" xlink:href="#CMR17-53"/>
      </g>
     </g>
    </g>
    <g id="xtick_2">
     <g id="line2d_2">
      <g>
       <use style="stroke:#000000;stroke-width:0.8;" x="119.102165" xlink:href="#m9e23456315" y="295.1"/>
      </g>
     </g>
     <g id="text_2">
      <!-- $1990$ -->
      <defs>
       <path d="M 42 31.640625 
C 42 37.75 41.90625 48.125 37.703125 56.109375 
C 34 63.109375 28.09375 65.59375 22.90625 65.59375 
C 18.09375 65.59375 12 63.40625 8.203125 56.203125 
C 4.203125 48.71875 3.796875 39.4375 3.796875 31.640625 
C 3.796875 25.953125 3.90625 17.28125 7 9.671875 
C 11.296875 -0.609375 19 -2 22.90625 -2 
C 27.5 -2 34.5 -0.109375 38.59375 9.375 
C 41.59375 16.28125 42 24.359375 42 31.640625 
z
M 22.90625 -0.40625 
C 16.5 -0.40625 12.703125 5.078125 11.296875 12.6875 
C 10.203125 18.5625 10.203125 27.15625 10.203125 32.75 
C 10.203125 40.4375 10.203125 46.828125 11.5 52.921875 
C 13.40625 61.390625 19 64 22.90625 64 
C 27 64 32.296875 61.296875 34.203125 53.125 
C 35.5 47.4375 35.59375 40.734375 35.59375 32.75 
C 35.59375 26.25 35.59375 18.265625 34.40625 12.375 
C 32.296875 1.484375 26.40625 -0.40625 22.90625 -0.40625 
z
" id="CMR17-48"/>
      </defs>
      <g transform="translate(109.139494 309.018498)scale(0.1 -0.1)">
       <use transform="scale(0.996264)" xlink:href="#CMR17-49"/>
       <use transform="translate(45.690477 0)scale(0.996264)" xlink:href="#CMR17-57"/>
       <use transform="translate(91.380954 0)scale(0.996264)" xlink:href="#CMR17-57"/>
       <use transform="translate(137.071431 0)scale(0.996264)" xlink:href="#CMR17-48"/>
      </g>
     </g>
    </g>
    <g id="xtick_3">
     <g id="line2d_3">
      <g>
       <use style="stroke:#000000;stroke-width:0.8;" x="177.409375" xlink:href="#m9e23456315" y="295.1"/>
      </g>
     </g>
     <g id="text_3">
      <!-- $1995$ -->
      <g transform="translate(167.446704 309.018498)scale(0.1 -0.1)">
       <use transform="scale(0.996264)" xlink:href="#CMR17-49"/>
       <use transform="translate(45.690477 0)scale(0.996264)" xlink:href="#CMR17-57"/>
       <use transform="translate(91.380954 0)scale(0.996264)" xlink:href="#CMR17-57"/>
       <use transform="translate(137.071431 0)scale(0.996264)" xlink:href="#CMR17-53"/>
      </g>
     </g>
    </g>
    <g id="xtick_4">
     <g id="line2d_4">
      <g>
       <use style="stroke:#000000;stroke-width:0.8;" x="235.716585" xlink:href="#m9e23456315" y="295.1"/>
      </g>
     </g>
     <g id="text_4">
      <!-- $2000$ -->
      <defs>
       <path d="M 41.703125 15.453125 
L 39.90625 15.453125 
C 38.90625 8.375 38.09375 7.171875 37.703125 6.5625 
C 37.203125 5.765625 30 5.765625 28.59375 5.765625 
L 9.40625 5.765625 
C 13 9.671875 20 16.75 28.5 24.953125 
C 34.59375 30.734375 41.703125 37.53125 41.703125 47.421875 
C 41.703125 59.21875 32.296875 66 21.796875 66 
C 10.796875 66 4.09375 56.3125 4.09375 47.34375 
C 4.09375 43.4375 7 42.9375 8.203125 42.9375 
C 9.203125 42.9375 12.203125 43.546875 12.203125 47.03125 
C 12.203125 50.109375 9.59375 51 8.203125 51 
C 7.59375 51 7 50.90625 6.59375 50.703125 
C 8.5 59.21875 14.296875 63.40625 20.40625 63.40625 
C 29.09375 63.40625 34.796875 56.515625 34.796875 47.421875 
C 34.796875 38.734375 29.703125 31.25 24 24.75 
L 4.09375 2.28125 
L 4.09375 0 
L 39.296875 0 
z
" id="CMR17-50"/>
      </defs>
      <g transform="translate(225.753914 309.018498)scale(0.1 -0.1)">
       <use transform="scale(0.996264)" xlink:href="#CMR17-50"/>
       <use transform="translate(45.690477 0)scale(0.996264)" xlink:href="#CMR17-48"/>
       <use transform="translate(91.380954 0)scale(0.996264)" xlink:href="#CMR17-48"/>
       <use transform="translate(137.071431 0)scale(0.996264)" xlink:href="#CMR17-48"/>
      </g>
     </g>
    </g>
    <g id="xtick_5">
     <g id="line2d_5">
      <g>
       <use style="stroke:#000000;stroke-width:0.8;" x="294.023795" xlink:href="#m9e23456315" y="295.1"/>
      </g>
     </g>
     <g id="text_5">
      <!-- $2005$ -->
      <g transform="translate(284.061124 309.018498)scale(0.1 -0.1)">
       <use transform="scale(0.996264)" xlink:href="#CMR17-50"/>
       <use transform="translate(45.690477 0)scale(0.996264)" xlink:href="#CMR17-48"/>
       <use transform="translate(91.380954 0)scale(0.996264)" xlink:href="#CMR17-48"/>
       <use transform="translate(137.071431 0)scale(0.996264)" xlink:href="#CMR17-53"/>
      </g>
     </g>
    </g>
    <g id="xtick_6">
     <g id="line2d_6">
      <g>
       <use style="stroke:#000000;stroke-width:0.8;" x="352.331005" xlink:href="#m9e23456315" y="295.1"/>
      </g>
     </g>
     <g id="text_6">
      <!-- $2010$ -->
      <g transform="translate(342.368335 309.018498)scale(0.1 -0.1)">
       <use transform="scale(0.996264)" xlink:href="#CMR17-50"/>
       <use transform="translate(45.690477 0)scale(0.996264)" xlink:href="#CMR17-48"/>
       <use transform="translate(91.380954 0)scale(0.996264)" xlink:href="#CMR17-49"/>
       <use transform="translate(137.071431 0)scale(0.996264)" xlink:href="#CMR17-48"/>
      </g>
     </g>
    </g>
    <g id="xtick_7">
     <g id="line2d_7">
      <g>
       <use style="stroke:#000000;stroke-width:0.8;" x="410.638215" xlink:href="#m9e23456315" y="295.1"/>
      </g>
     </g>
     <g id="text_7">
      <!-- $2015$ -->
      <g transform="translate(400.675545 309.018498)scale(0.1 -0.1)">
       <use transform="scale(0.996264)" xlink:href="#CMR17-50"/>
       <use transform="translate(45.690477 0)scale(0.996264)" xlink:href="#CMR17-48"/>
       <use transform="translate(91.380954 0)scale(0.996264)" xlink:href="#CMR17-49"/>
       <use transform="translate(137.071431 0)scale(0.996264)" xlink:href="#CMR17-53"/>
      </g>
     </g>
    </g>
    <g id="xtick_8">
     <g id="line2d_8">
      <g>
       <use style="stroke:#000000;stroke-width:0.8;" x="468.945425" xlink:href="#m9e23456315" y="295.1"/>
      </g>
     </g>
     <g id="text_8">
      <!-- $2020$ -->
      <g transform="translate(458.982755 309.018498)scale(0.1 -0.1)">
       <use transform="scale(0.996264)" xlink:href="#CMR17-50"/>
       <use transform="translate(45.690477 0)scale(0.996264)" xlink:href="#CMR17-48"/>
       <use transform="translate(91.380954 0)scale(0.996264)" xlink:href="#CMR17-50"/>
       <use transform="translate(137.071431 0)scale(0.996264)" xlink:href="#CMR17-48"/>
      </g>
     </g>
    </g>
    <g id="text_9">
     <!-- Year -->
     <defs>
      <path d="M 62.09375 69 
L 53.5 69 
L 38 44.953125 
C 36.796875 43.046875 33.40625 37.890625 31.796875 35 
L 26.90625 42.859375 
L 10.09375 69 
L 0.296875 69 
L 27.09375 27.640625 
L 27.09375 0 
L 35.296875 0 
L 35.296875 27.546875 
z
" id="CMSS17-89"/>
      <path d="M 39.09375 21.515625 
C 39.09375 24.84375 38.90625 31.296875 35.703125 36.640625 
C 32.203125 42.390625 26.5 44 22.203125 44 
C 11.796875 44 3 34.1875 3 21.484375 
C 3 9.09375 12.09375 -1 23.59375 -1 
C 28.09375 -1 33.59375 0.296875 38.59375 3.875 
C 38.59375 4.28125 38.40625 6.46875 38.296875 6.5625 
C 38.296875 6.765625 38 9.84375 38 10.25 
C 33.203125 6.359375 27.703125 5.078125 23.703125 5.078125 
C 17.296875 5.078125 10.40625 10.421875 10.09375 21.515625 
z
M 10.90625 27 
C 12.203125 32.5625 16.59375 37.828125 22.203125 37.828125 
C 23.703125 37.828125 30.703125 37.828125 32.5 27 
z
" id="CMSS17-101"/>
      <path d="M 37.59375 27.984375 
C 37.59375 37.375 30.90625 43.875 21.90625 43.875 
C 17.5 43.875 12.703125 43.078125 7.203125 39.890625 
L 7.796875 33.359375 
C 10.296875 35.125 14.59375 38 21.796875 38 
C 26.90625 38 30 34.0625 30 27.84375 
L 30 24 
C 14 24 4 19.34375 4 11.34375 
C 4 7.203125 6.5 -1 14.796875 -1 
C 16.296875 -1 24.40625 -1 30.203125 3.390625 
L 30.203125 -0.296875 
L 37.59375 -0.296875 
z
M 30 12.75 
C 30 10.953125 30 8.5625 27 6.78125 
C 24.40625 5.078125 21.09375 5.078125 19.703125 5.078125 
C 14.703125 5.078125 11.296875 7.984375 11.296875 11.625 
C 11.296875 18.921875 26.90625 18.921875 30 18.921875 
z
" id="CMSS17-97"/>
      <path d="M 14.90625 21.296875 
C 14.90625 30.703125 21.796875 37 30.59375 37 
L 30.59375 43.578125 
C 24.203125 43.578125 18.203125 40.390625 14.59375 35.203125 
L 14.59375 43.09375 
L 7.5 43.09375 
L 7.5 0 
L 14.90625 0 
z
" id="CMSS17-114"/>
     </defs>
     <g transform="translate(273.285262 321.874175)scale(0.1 -0.1)">
      <use transform="scale(0.996264)" xlink:href="#CMSS17-89"/>
      <use transform="translate(54.4106 0)scale(0.996264)" xlink:href="#CMSS17-101"/>
      <use transform="translate(96.049422 0)scale(0.996264)" xlink:href="#CMSS17-97"/>
      <use transform="translate(138.368888 0)scale(0.996264)" xlink:href="#CMSS17-114"/>
     </g>
    </g>
   </g>
   <g id="matplotlib.axis_2">
    <g id="ytick_1">
     <g id="line2d_9">
      <path clip-path="url(#p7cca4782da)" d="M 59.162353 295.1 
L 505.562353 295.1 
" style="fill:none;stroke:#b0b0b0;stroke-linecap:square;stroke-width:0.5;"/>
     </g>
     <g id="line2d_10">
      <defs>
       <path d="M 0 0 
L -3.5 0 
" id="meb142b9235" style="stroke:#000000;stroke-width:0.8;"/>
      </defs>
      <g>
       <use style="stroke:#000000;stroke-width:0.8;" x="59.162353" xlink:href="#meb142b9235" y="295.1"/>
      </g>
     </g>
     <g id="text_10">
      <!-- $0$ -->
      <g transform="translate(47.181018 298.559249)scale(0.1 -0.1)">
       <use transform="scale(0.996264)" xlink:href="#CMR17-48"/>
      </g>
     </g>
    </g>
    <g id="ytick_2">
     <g id="line2d_11">
      <path clip-path="url(#p7cca4782da)" d="M 59.162353 256.133849 
L 505.562353 256.133849 
" style="fill:none;stroke:#b0b0b0;stroke-linecap:square;stroke-width:0.5;"/>
     </g>
     <g id="line2d_12">
      <g>
       <use style="stroke:#000000;stroke-width:0.8;" x="59.162353" xlink:href="#meb142b9235" y="256.133849"/>
      </g>
     </g>
     <g id="text_11">
      <!-- $10000$ -->
      <g transform="translate(27.255677 259.593098)scale(0.1 -0.1)">
       <use transform="scale(0.996264)" xlink:href="#CMR17-49"/>
       <use transform="translate(45.690477 0)scale(0.996264)" xlink:href="#CMR17-48"/>
       <use transform="translate(91.380954 0)scale(0.996264)" xlink:href="#CMR17-48"/>
       <use transform="translate(137.071431 0)scale(0.996264)" xlink:href="#CMR17-48"/>
       <use transform="translate(182.761908 0)scale(0.996264)" xlink:href="#CMR17-48"/>
      </g>
     </g>
    </g>
    <g id="ytick_3">
     <g id="line2d_13">
      <path clip-path="url(#p7cca4782da)" d="M 59.162353 217.167697 
L 505.562353 217.167697 
" style="fill:none;stroke:#b0b0b0;stroke-linecap:square;stroke-width:0.5;"/>
     </g>
     <g id="line2d_14">
      <g>
       <use style="stroke:#000000;stroke-width:0.8;" x="59.162353" xlink:href="#meb142b9235" y="217.167697"/>
      </g>
     </g>
     <g id="text_12">
      <!-- $20000$ -->
      <g transform="translate(27.255677 220.626947)scale(0.1 -0.1)">
       <use transform="scale(0.996264)" xlink:href="#CMR17-50"/>
       <use transform="translate(45.690477 0)scale(0.996264)" xlink:href="#CMR17-48"/>
       <use transform="translate(91.380954 0)scale(0.996264)" xlink:href="#CMR17-48"/>
       <use transform="translate(137.071431 0)scale(0.996264)" xlink:href="#CMR17-48"/>
       <use transform="translate(182.761908 0)scale(0.996264)" xlink:href="#CMR17-48"/>
      </g>
     </g>
    </g>
    <g id="ytick_4">
     <g id="line2d_15">
      <path clip-path="url(#p7cca4782da)" d="M 59.162353 178.201546 
L 505.562353 178.201546 
" style="fill:none;stroke:#b0b0b0;stroke-linecap:square;stroke-width:0.5;"/>
     </g>
     <g id="line2d_16">
      <g>
       <use style="stroke:#000000;stroke-width:0.8;" x="59.162353" xlink:href="#meb142b9235" y="178.201546"/>
      </g>
     </g>
     <g id="text_13">
      <!-- $30000$ -->
      <defs>
       <path d="M 22.09375 33.703125 
C 31 33.703125 34.90625 25.96875 34.90625 17.03125 
C 34.90625 5 28.5 0.390625 22.703125 0.390625 
C 17.40625 0.390625 8.796875 3.03125 6.09375 10.828125 
C 6.59375 10.625 7.09375 10.625 7.59375 10.625 
C 10 10.625 11.796875 12.21875 11.796875 14.8125 
C 11.796875 17.703125 9.59375 19 7.59375 19 
C 5.90625 19 3.296875 18.203125 3.296875 14.46875 
C 3.296875 5.234375 12.296875 -2 22.90625 -2 
C 34 -2 42.5 6.71875 42.5 16.953125 
C 42.5 26.671875 34.5 33.703125 25 34.796875 
C 32.59375 36.375 39.90625 43.0625 39.90625 52.015625 
C 39.90625 59.6875 32 65.296875 23 65.296875 
C 13.90625 65.296875 5.90625 59.828125 5.90625 52.015625 
C 5.90625 48.59375 8.5 48 9.796875 48 
C 11.90625 48 13.703125 49.296875 13.703125 51.890625 
C 13.703125 54.46875 11.90625 55.765625 9.796875 55.765625 
C 9.40625 55.765625 8.90625 55.765625 8.5 55.578125 
C 11.40625 61.859375 19.296875 63 22.796875 63 
C 26.296875 63 32.90625 61.328125 32.90625 51.875 
C 32.90625 49.109375 32.5 44.1875 29.09375 39.84375 
C 26.09375 36 22.703125 36 19.40625 35.6875 
C 18.90625 35.6875 16.59375 35.453125 16.203125 35.453125 
C 15.5 35.359375 15.09375 35.265625 15.09375 34.5 
C 15.09375 33.796875 15.203125 33.703125 17.203125 33.703125 
z
" id="CMR17-51"/>
      </defs>
      <g transform="translate(27.255677 181.660795)scale(0.1 -0.1)">
       <use transform="scale(0.996264)" xlink:href="#CMR17-51"/>
       <use transform="translate(45.690477 0)scale(0.996264)" xlink:href="#CMR17-48"/>
       <use transform="translate(91.380954 0)scale(0.996264)" xlink:href="#CMR17-48"/>
       <use transform="translate(137.071431 0)scale(0.996264)" xlink:href="#CMR17-48"/>
       <use transform="translate(182.761908 0)scale(0.996264)" xlink:href="#CMR17-48"/>
      </g>
     </g>
    </g>
    <g id="ytick_5">
     <g id="line2d_17">
      <path clip-path="url(#p7cca4782da)" d="M 59.162353 139.235395 
L 505.562353 139.235395 
" style="fill:none;stroke:#b0b0b0;stroke-linecap:square;stroke-width:0.5;"/>
     </g>
     <g id="line2d_18">
      <g>
       <use style="stroke:#000000;stroke-width:0.8;" x="59.162353" xlink:href="#meb142b9235" y="139.235395"/>
      </g>
     </g>
     <g id="text_14">
      <!-- $40000$ -->
      <defs>
       <path d="M 33.59375 64.40625 
C 33.59375 66.5 33.5 66.5 31.703125 66.5 
L 2 19.59375 
L 2 17 
L 27.796875 17 
L 27.796875 7.140625 
C 27.796875 3.5 27.59375 2.5 20.59375 2.5 
L 18.703125 2.5 
L 18.703125 0 
C 21.90625 0 27.296875 0 30.703125 0 
C 34.09375 0 39.5 0 42.703125 0 
L 42.703125 2.5 
L 40.796875 2.5 
C 33.796875 2.5 33.59375 3.5 33.59375 7.140625 
L 33.59375 17 
L 43.796875 17 
L 43.796875 19.59375 
L 33.59375 19.59375 
z
M 28.09375 57.859375 
L 28.09375 19.59375 
L 4 19.59375 
z
" id="CMR17-52"/>
      </defs>
      <g transform="translate(27.255677 142.694644)scale(0.1 -0.1)">
       <use transform="scale(0.996264)" xlink:href="#CMR17-52"/>
       <use transform="translate(45.690477 0)scale(0.996264)" xlink:href="#CMR17-48"/>
       <use transform="translate(91.380954 0)scale(0.996264)" xlink:href="#CMR17-48"/>
       <use transform="translate(137.071431 0)scale(0.996264)" xlink:href="#CMR17-48"/>
       <use transform="translate(182.761908 0)scale(0.996264)" xlink:href="#CMR17-48"/>
      </g>
     </g>
    </g>
    <g id="ytick_6">
     <g id="line2d_19">
      <path clip-path="url(#p7cca4782da)" d="M 59.162353 100.269244 
L 505.562353 100.269244 
" style="fill:none;stroke:#b0b0b0;stroke-linecap:square;stroke-width:0.5;"/>
     </g>
     <g id="line2d_20">
      <g>
       <use style="stroke:#000000;stroke-width:0.8;" x="59.162353" xlink:href="#meb142b9235" y="100.269244"/>
      </g>
     </g>
     <g id="text_15">
      <!-- $50000$ -->
      <g transform="translate(27.255677 103.728493)scale(0.1 -0.1)">
       <use transform="scale(0.996264)" xlink:href="#CMR17-53"/>
       <use transform="translate(45.690477 0)scale(0.996264)" xlink:href="#CMR17-48"/>
       <use transform="translate(91.380954 0)scale(0.996264)" xlink:href="#CMR17-48"/>
       <use transform="translate(137.071431 0)scale(0.996264)" xlink:href="#CMR17-48"/>
       <use transform="translate(182.761908 0)scale(0.996264)" xlink:href="#CMR17-48"/>
      </g>
     </g>
    </g>
    <g id="ytick_7">
     <g id="line2d_21">
      <path clip-path="url(#p7cca4782da)" d="M 59.162353 61.303092 
L 505.562353 61.303092 
" style="fill:none;stroke:#b0b0b0;stroke-linecap:square;stroke-width:0.5;"/>
     </g>
     <g id="line2d_22">
      <g>
       <use style="stroke:#000000;stroke-width:0.8;" x="59.162353" xlink:href="#meb142b9235" y="61.303092"/>
      </g>
     </g>
     <g id="text_16">
      <!-- $60000$ -->
      <defs>
       <path d="M 10.59375 34 
C 10.59375 57.65625 21.796875 63 28.296875 63 
C 30.40625 63 35.5 62.640625 37.5 59 
C 35.90625 59 32.90625 59 32.90625 55.515625 
C 32.90625 52.828125 35.09375 51.921875 36.5 51.921875 
C 37.40625 51.921875 40.09375 52.3125 40.09375 55.625 
C 40.09375 61.78125 35.09375 65.296875 28.203125 65.296875 
C 16.296875 65.296875 3.796875 52.96875 3.796875 31 
C 3.796875 3.953125 15.09375 -2 23.09375 -2 
C 32.796875 -2 42 6.671875 42 20.046875 
C 42 32.515625 33.90625 41.59375 23.703125 41.59375 
C 17.59375 41.59375 13.09375 37.609375 10.59375 30.625 
z
M 23.09375 0.390625 
C 10.796875 0.390625 10.796875 18.75 10.796875 22.4375 
C 10.796875 29.625 14.203125 40 23.5 40 
C 25.203125 40 30.09375 40 33.40625 33.125 
C 35.203125 29.21875 35.203125 25.140625 35.203125 20.140625 
C 35.203125 14.75 35.203125 10.78125 33.09375 6.78125 
C 30.90625 2.671875 27.703125 0.390625 23.09375 0.390625 
z
" id="CMR17-54"/>
      </defs>
      <g transform="translate(27.255677 64.762342)scale(0.1 -0.1)">
       <use transform="scale(0.996264)" xlink:href="#CMR17-54"/>
       <use transform="translate(45.690477 0)scale(0.996264)" xlink:href="#CMR17-48"/>
       <use transform="translate(91.380954 0)scale(0.996264)" xlink:href="#CMR17-48"/>
       <use transform="translate(137.071431 0)scale(0.996264)" xlink:href="#CMR17-48"/>
       <use transform="translate(182.761908 0)scale(0.996264)" xlink:href="#CMR17-48"/>
      </g>
     </g>
    </g>
    <g id="ytick_8">
     <g id="line2d_23">
      <path clip-path="url(#p7cca4782da)" d="M 59.162353 22.336941 
L 505.562353 22.336941 
" style="fill:none;stroke:#b0b0b0;stroke-linecap:square;stroke-width:0.5;"/>
     </g>
     <g id="line2d_24">
      <g>
       <use style="stroke:#000000;stroke-width:0.8;" x="59.162353" xlink:href="#meb142b9235" y="22.336941"/>
      </g>
     </g>
     <g id="text_17">
      <!-- $70000$ -->
      <defs>
       <path d="M 45.09375 61.578125 
L 45.09375 63.765625 
L 21.59375 63.765625 
C 9.90625 63.765625 9.703125 65.078125 9.296875 67 
L 7.5 67 
L 4.59375 48.34375 
L 6.40625 48.34375 
C 6.703125 50.234375 7.40625 55.3125 8.59375 57.203125 
C 9.203125 58 16.59375 58 18.296875 58 
L 40.296875 58 
L 29.203125 41.578125 
C 21.796875 30.53125 16.703125 15.609375 16.703125 2.578125 
C 16.703125 1.390625 16.703125 -2 20.296875 -2 
C 23.90625 -2 23.90625 1.390625 23.90625 2.671875 
L 23.90625 7.265625 
C 23.90625 23.5625 26.703125 34.3125 31.296875 41.1875 
z
" id="CMR17-55"/>
      </defs>
      <g transform="translate(27.255677 25.79619)scale(0.1 -0.1)">
       <use transform="scale(0.996264)" xlink:href="#CMR17-55"/>
       <use transform="translate(45.690477 0)scale(0.996264)" xlink:href="#CMR17-48"/>
       <use transform="translate(91.380954 0)scale(0.996264)" xlink:href="#CMR17-48"/>
       <use transform="translate(137.071431 0)scale(0.996264)" xlink:href="#CMR17-48"/>
       <use transform="translate(182.761908 0)scale(0.996264)" xlink:href="#CMR17-48"/>
      </g>
     </g>
    </g>
    <g id="text_18">
     <!-- Number of Publications -->
     <defs>
      <path d="M 22.90625 65.3125 
L 21.09375 69 
L 8.796875 69 
L 8.796875 0 
L 16.59375 0 
L 16.59375 61.34375 
L 16.703125 61.4375 
C 17.40625 59.640625 17.796875 58.75 21.90625 49.90625 
L 43.296875 3.6875 
L 45.09375 0 
L 57.40625 0 
L 57.40625 69 
L 49.59375 69 
L 49.59375 7.65625 
L 49.5 7.546875 
C 48.796875 9.34375 48.40625 10.234375 44.296875 19.078125 
z
" id="CMSS17-78"/>
      <path d="M 40.90625 42.796875 
L 33.296875 42.796875 
L 33.296875 15.1875 
C 33.296875 7.78125 27.90625 4.78125 22.203125 4.78125 
C 15.59375 4.78125 15 6.984375 15 11.078125 
L 15 42.796875 
L 7.40625 42.796875 
L 7.40625 10.59375 
C 7.40625 2.796875 10.09375 -1 17 -1 
C 20.40625 -1 28.09375 -0.203125 33.5 4.78125 
L 33.5 0 
L 40.90625 0 
z
" id="CMSS17-117"/>
      <path d="M 67 29.328125 
C 67 36.0625 65.296875 44 54.09375 44 
C 46.59375 44 42.09375 39.3125 40.09375 36.421875 
C 38.296875 41.71875 34.09375 44 28.09375 44 
C 21.296875 44 17 40.125 14.703125 37.328125 
L 14.703125 43.09375 
L 7.40625 43.09375 
L 7.40625 0 
L 15 0 
L 15 24.359375 
C 15 30.296875 17.203125 37.9375 24.296875 37.9375 
C 33.40625 37.9375 33.40625 31.5 33.40625 28.578125 
L 33.40625 0 
L 41 0 
L 41 24.359375 
C 41 30.296875 43.203125 37.9375 50.296875 37.9375 
C 59.40625 37.9375 59.40625 31.5 59.40625 28.578125 
L 59.40625 0 
L 67 0 
z
" id="CMSS17-109"/>
      <path d="M 14.90625 69 
L 7.5 69 
L 7.5 -0.203125 
L 15.09375 -0.203125 
L 15.09375 4.28125 
C 18.90625 0.59375 23.5 -1 27.59375 -1 
C 37.203125 -1 45 8.578125 45 21.125 
C 45 32.59375 39 43.0625 30.09375 43.0625 
C 23.796875 43.0625 18.203125 40.484375 14.90625 37.796875 
z
M 15.09375 31.96875 
C 17.296875 34.71875 20.40625 37 24.796875 37 
C 30.703125 37 37.40625 32.765625 37.40625 21.125 
C 37.40625 8.71875 29.40625 5.078125 23.90625 5.078125 
C 21.90625 5.078125 19.796875 5.5625 17.796875 7.25 
C 15.09375 9.609375 15.09375 11.078125 15.09375 12.453125 
z
" id="CMSS17-98"/>
      <path d="M 44.203125 21.1875 
C 44.203125 34 34.703125 44 23.5 44 
C 12 44 2.703125 33.703125 2.703125 21.1875 
C 2.703125 8.5 12.296875 -1 23.40625 -1 
C 34.796875 -1 44.203125 8.796875 44.203125 21.1875 
z
M 23.5 5.265625 
C 16.40625 5.265625 10.296875 11.078125 10.296875 22 
C 10.296875 33.609375 17.40625 37.921875 23.40625 37.921875 
C 29.90625 37.921875 36.59375 33.21875 36.59375 22 
C 36.59375 10.671875 30.09375 5.265625 23.5 5.265625 
z
" id="CMSS17-111"/>
      <path d="M 16.796875 37 
L 26.90625 37 
L 26.90625 42.765625 
L 16.59375 42.765625 
L 16.59375 55.609375 
C 16.59375 62.71875 22 63.9375 25.09375 63.9375 
C 26.09375 63.9375 28.90625 63.9375 32.5 62.640625 
L 32.5 69.203125 
C 30.203125 69.703125 27.40625 70 25.203125 70 
C 15.90625 70 9.40625 62.390625 9.40625 52.484375 
L 9.40625 42.765625 
L 2.5 42.765625 
L 2.5 37 
L 9.40625 37 
L 9.40625 0 
L 16.796875 0 
z
" id="CMSS17-102"/>
      <path d="M 32.90625 29 
C 44.90625 29 54.703125 38.328125 54.703125 49.34375 
C 54.703125 60.15625 45.296875 69.578125 32.296875 69.578125 
L 8.90625 69.578125 
L 8.90625 0 
L 17.296875 0 
L 17.296875 29 
z
M 30.09375 64 
C 41.703125 64 46.796875 56.671875 46.796875 49.328125 
C 46.796875 42.5 42.09375 34.78125 30.09375 34.78125 
L 17.09375 34.78125 
L 17.09375 64 
z
" id="CMSS17-80"/>
      <path d="M 14.796875 69 
L 7.40625 69 
L 7.40625 0 
L 14.796875 0 
z
" id="CMSS17-108"/>
      <path d="M 15.296875 65.359375 
L 6.90625 65.359375 
L 6.90625 57 
L 15.296875 57 
z
M 14.796875 42.796875 
L 7.40625 42.796875 
L 7.40625 0 
L 14.796875 0 
z
" id="CMSS17-105"/>
      <path d="M 38.5 39.703125 
C 38.5 40.390625 33.90625 42.40625 32.703125 42.796875 
C 29.40625 44 25.203125 44 24.09375 44 
C 11.09375 44 3.296875 32.703125 3.296875 21.296875 
C 3.296875 9.296875 12 -1 23.703125 -1 
C 30.40625 -1 35.203125 1.1875 39.09375 3.78125 
L 38.5 10.375 
C 34.203125 7.078125 29.203125 5.265625 23.796875 5.265625 
C 16 5.265625 10.90625 12.09375 10.90625 21.390625 
C 10.90625 28.609375 14.203125 37.71875 24.203125 37.71875 
C 29.703125 37.71875 32.796875 36.609375 37.40625 33.515625 
z
" id="CMSS17-99"/>
      <path d="M 16.703125 37 
L 29.703125 37 
L 29.703125 42.765625 
L 16.703125 42.765625 
L 16.703125 55 
L 9.59375 55 
L 9.59375 42.765625 
L 1.703125 42.765625 
L 1.703125 37 
L 9.40625 37 
L 9.40625 11.703125 
C 9.40625 6 10.703125 -1 17.296875 -1 
C 22.296875 -1 26.90625 0.390625 31.296875 2.6875 
L 29.703125 8.5625 
C 27.296875 6.46875 24.40625 5.265625 21.296875 5.265625 
C 16.90625 5.265625 16.703125 10.875 16.703125 13.375 
z
" id="CMSS17-116"/>
      <path d="M 40.90625 29.328125 
C 40.90625 35.671875 39.40625 44 28.09375 44 
C 21.703125 44 17.5 40.71875 14.703125 37.328125 
L 14.703125 43.09375 
L 7.40625 43.09375 
L 7.40625 0 
L 15 0 
L 15 24.359375 
C 15 30.6875 17.40625 37.9375 24.203125 37.9375 
C 33 37.9375 33.296875 32 33.296875 28.578125 
L 33.296875 0 
L 40.90625 0 
z
" id="CMSS17-110"/>
      <path d="M 32.203125 41.046875 
C 26.296875 43.859375 21.703125 43.859375 18.703125 43.859375 
C 11.59375 43.859375 3.09375 41.375 3.09375 31.296875 
C 3.09375 21.234375 14.09375 19.03125 17.09375 18.421875 
C 21.703125 17.53125 26.796875 16.53125 26.796875 11.5625 
C 26.796875 5.265625 19.59375 5.265625 18.296875 5.265625 
C 14.296875 5.265625 8.796875 6.359375 3.796875 9.96875 
L 2.59375 3.28125 
C 8.296875 0 13.796875 -1 18.40625 -1 
C 30.703125 -1 33.796875 6.5 33.796875 12.203125 
C 33.796875 17.09375 31 20.390625 29.09375 21.890625 
C 25.796875 24.5 24.59375 24.796875 16.40625 26.5 
C 15 26.703125 10.09375 27.796875 10.09375 32.28125 
C 10.09375 38 16.40625 38 17.796875 38 
C 24.296875 38 28.296875 35.984375 31 34.5 
z
" id="CMSS17-115"/>
     </defs>
     <g transform="translate(21.318498 205.801311)rotate(-90)scale(0.1 -0.1)">
      <use transform="scale(0.996264)" xlink:href="#CMSS17-78"/>
      <use transform="translate(66.061519 0)scale(0.996264)" xlink:href="#CMSS17-117"/>
      <use transform="translate(114.266462 0)scale(0.996264)" xlink:href="#CMSS17-109"/>
      <use transform="translate(188.495717 0)scale(0.996264)" xlink:href="#CMSS17-98"/>
      <use transform="translate(239.303099 0)scale(0.996264)" xlink:href="#CMSS17-101"/>
      <use transform="translate(280.941921 0)scale(0.996264)" xlink:href="#CMSS17-114"/>
      <use transform="translate(344.080806 0)scale(0.996264)" xlink:href="#CMSS17-111"/>
      <use transform="translate(390.92443 0)scale(0.996264)" xlink:href="#CMSS17-102"/>
      <use transform="translate(450.780201 0)scale(0.996264)" xlink:href="#CMSS17-80"/>
      <use transform="translate(510.515787 0)scale(0.996264)" xlink:href="#CMSS17-117"/>
      <use transform="translate(558.72073 0)scale(0.996264)" xlink:href="#CMSS17-98"/>
      <use transform="translate(606.925674 0)scale(0.996264)" xlink:href="#CMSS17-108"/>
      <use transform="translate(629.106397 0)scale(0.996264)" xlink:href="#CMSS17-105"/>
      <use transform="translate(651.28712 0)scale(0.996264)" xlink:href="#CMSS17-99"/>
      <use transform="translate(692.925942 0)scale(0.996264)" xlink:href="#CMSS17-97"/>
      <use transform="translate(737.847862 0)scale(0.996264)" xlink:href="#CMSS17-116"/>
      <use transform="translate(771.679429 0)scale(0.996264)" xlink:href="#CMSS17-105"/>
      <use transform="translate(793.860152 0)scale(0.996264)" xlink:href="#CMSS17-111"/>
      <use transform="translate(840.703776 0)scale(0.996264)" xlink:href="#CMSS17-110"/>
      <use transform="translate(888.908719 0)scale(0.996264)" xlink:href="#CMSS17-115"/>
     </g>
    </g>
   </g>
   <g id="patch_41">
    <path d="M 59.162353 295.1 
L 59.162353 17.9 
" style="fill:none;stroke:#000000;stroke-linecap:square;stroke-linejoin:miter;stroke-width:0.8;"/>
   </g>
   <g id="patch_42">
    <path d="M 505.562353 295.1 
L 505.562353 17.9 
" style="fill:none;stroke:#000000;stroke-linecap:square;stroke-linejoin:miter;stroke-width:0.8;"/>
   </g>
   <g id="patch_43">
    <path d="M 59.162353 295.1 
L 505.562353 295.1 
" style="fill:none;stroke:#000000;stroke-linecap:square;stroke-linejoin:miter;stroke-width:0.8;"/>
   </g>
   <g id="patch_44">
    <path d="M 59.162353 17.9 
L 505.562353 17.9 
" style="fill:none;stroke:#000000;stroke-linecap:square;stroke-linejoin:miter;stroke-width:0.8;"/>
   </g>
   <g id="text_19">
    <!-- [969] -->
    <defs>
     <path d="M 25.203125 -25 
L 25.203125 -18.9375 
L 16.59375 -18.9375 
L 16.59375 68 
L 25.203125 68 
L 25.203125 74.078125 
L 9.296875 74.078125 
L 9.296875 -25 
z
" id="CMSS17-91"/>
     <path d="M 6.796875 2.71875 
C 9.59375 0.328125 13.203125 -2 19.296875 -2 
C 31.40625 -2 43 11.265625 43 32.734375 
C 43 61.4375 30.5 66.078125 23.796875 66.078125 
C 17.09375 66.078125 12.796875 63.140625 9.09375 58.453125 
C 4.703125 53.078125 3.90625 48.28125 3.90625 42.703125 
C 3.90625 36.046875 5.09375 31.953125 7.90625 27.265625 
C 11.703125 21.203125 15.203125 19.921875 19.09375 19.921875 
C 25 19.921875 30.90625 22.796875 34.90625 27.75 
C 34.203125 14.09375 28.09375 4.171875 19.296875 4.171875 
C 15.703125 4.171875 12.796875 5.296875 9.90625 8.0625 
z
M 34.59375 42.90625 
C 34.703125 42.234375 34.703125 40.96875 34.703125 40.5625 
C 34.703125 32.40625 29.90625 26 22.90625 26 
C 18.296875 26 15.90625 28.328125 14.09375 31.34375 
C 11.90625 35.140625 11.796875 38.828125 11.796875 42.703125 
C 11.796875 46.5 11.796875 50.6875 14.59375 54.859375 
C 16.703125 57.859375 19.296875 60 23.796875 60 
C 33 60 34.5 46.875 34.59375 42.90625 
z
" id="CMSS17-57"/>
     <path d="M 39 64.078125 
C 34.796875 65.78125 31.796875 66.078125 29 66.078125 
C 16 66.078125 3.90625 52.625 3.90625 31.34375 
C 3.90625 4.140625 15.40625 -2 23.59375 -2 
C 28.09375 -2 32.59375 -0.609375 36.90625 4.375 
C 41.296875 9.640625 43 14.03125 43 21.703125 
C 43 34.046875 36.90625 45 27.796875 45 
C 21.203125 45 15.5 41.515625 12 37.125 
C 13 50.90625 19.59375 60 29.09375 60 
C 31.703125 60 35.09375 59.625 39 57.96875 
z
M 12.09375 21.390625 
C 12.09375 22.1875 12.09375 22.6875 12.203125 24.1875 
C 12.203125 31.953125 16.703125 38.921875 24 38.921875 
C 28.703125 38.921875 31.09375 36.4375 32.90625 33.359375 
C 35 29.46875 35.09375 25.78125 35.09375 21.6875 
C 35.09375 17.8125 35.09375 13.921875 32.796875 9.953125 
C 30.90625 6.859375 28.40625 4.171875 23.59375 4.171875 
C 14.09375 4.171875 12.5 17.40625 12.09375 21.390625 
z
" id="CMSS17-54"/>
     <path d="M 17.90625 74.078125 
L 2 74.078125 
L 2 68 
L 10.59375 68 
L 10.59375 -18.9375 
L 2 -18.9375 
L 2 -25 
L 17.90625 -25 
z
" id="CMSS17-93"/>
    </defs>
    <g transform="translate(82.603128 286.749783)scale(0.13 -0.13)">
     <use transform="scale(0.996264)" xlink:href="#CMSS17-91"/>
     <use transform="translate(27.185439 0)scale(0.996264)" xlink:href="#CMSS17-57"/>
     <use transform="translate(74.029062 0)scale(0.996264)" xlink:href="#CMSS17-54"/>
     <use transform="translate(120.872686 0)scale(0.996264)" xlink:href="#CMSS17-57"/>
     <use transform="translate(167.716309 0)scale(0.996264)" xlink:href="#CMSS17-93"/>
    </g>
   </g>
   <g id="text_20">
    <!-- [8,539] -->
    <defs>
     <path d="M 30.203125 34.71875 
C 37.796875 37.1875 41.703125 43.125 41.703125 48.96875 
C 41.703125 58.15625 33.703125 66.078125 23.5 66.078125 
C 12.90625 66.078125 5.203125 57.9375 5.203125 49.125 
C 5.203125 43.4375 9 37.546875 16.703125 35.015625 
C 6.90625 31.203125 3.90625 23.625 3.90625 17.953125 
C 3.90625 6.96875 12.796875 -2 23.40625 -2 
C 34.40625 -2 43 7.109375 43 17.78125 
C 43 24.328125 39.09375 31.25 30.203125 34.71875 
z
M 23.5 38 
C 16.796875 38 12.296875 42.375 12.296875 49 
C 12.296875 55.71875 16.796875 60 23.5 60 
C 29.703125 60 34.59375 56.109375 34.59375 49 
C 34.59375 41.984375 29.796875 38 23.5 38 
z
M 23.5 4.171875 
C 17.796875 4.171875 11.703125 8.078125 11.703125 18.0625 
C 11.703125 28.328125 18.5 31.921875 23.40625 31.921875 
C 28.796875 31.921875 35.203125 28.125 35.203125 18.0625 
C 35.203125 7.671875 28.59375 4.171875 23.5 4.171875 
z
" id="CMSS17-56"/>
     <path d="M 17 0.09375 
L 17 7.96875 
L 9 7.96875 
L 9 0 
L 11.5 0 
L 8.90625 -12.5 
L 12.90625 -12.5 
z
" id="CMSS17-44"/>
     <path d="M 14.59375 58.625 
L 39.09375 58.625 
L 39.09375 65 
L 7.296875 65 
L 7.296875 27.828125 
L 14 27.828125 
C 15.796875 31.96875 19.5 35 24.296875 35 
C 28.796875 35 33.796875 31.078125 33.796875 19.78125 
C 33.796875 7.703125 26.703125 4.171875 21.5 4.171875 
C 15.09375 4.171875 9.203125 8 6.59375 13.296875 
L 3.40625 7.796875 
C 8 0.765625 15.5 -2 21.5 -2 
C 33.09375 -2 42.203125 7.765625 42.203125 19.578125 
C 42.203125 31.71875 34.09375 41.078125 24.40625 41.078125 
C 20.90625 41.078125 17.5 39.890625 14.59375 37.484375 
z
" id="CMSS17-53"/>
     <path d="M 15.703125 31.640625 
L 22.5 31.640625 
C 31.90625 31.640625 34.59375 23.546875 34.59375 17.90625 
C 34.59375 10.203125 30.203125 4.171875 23 4.171875 
C 17.40625 4.171875 9.5 6.9375 5 14.25 
C 4.296875 10.796875 4.296875 10.59375 3.90625 8.21875 
C 8.59375 1.375 16.203125 -2 23.203125 -2 
C 34.59375 -2 43 7.390625 43 17.78125 
C 43 25.59375 37.5 32.140625 30 34.609375 
C 36 37.875 40.40625 44 40.40625 51.140625 
C 40.40625 59.453125 32.703125 66.078125 23.296875 66.078125 
C 14.703125 66.078125 8 60.8125 5.203125 55.15625 
C 5.90625 54.1875 7.703125 51.3125 8.59375 49.828125 
C 10.796875 55.65625 16.5 60 23.203125 60 
C 28.796875 60 32.5 56.359375 32.5 51.109375 
C 32.5 45.671875 29 39.734375 23.09375 38.359375 
C 22.703125 38.359375 16.5 37.765625 15.703125 37.671875 
z
" id="CMSS17-51"/>
    </defs>
    <g transform="translate(124.31721 280.526889)scale(0.13 -0.13)">
     <use transform="scale(0.996264)" xlink:href="#CMSS17-91"/>
     <use transform="translate(27.185439 0)scale(0.996264)" xlink:href="#CMSS17-56"/>
     <use transform="translate(74.029062 0)scale(0.996264)" xlink:href="#CMSS17-44"/>
     <use transform="translate(100.053267 0)scale(0.996264)" xlink:href="#CMSS17-53"/>
     <use transform="translate(146.896891 0)scale(0.996264)" xlink:href="#CMSS17-51"/>
     <use transform="translate(193.740514 0)scale(0.996264)" xlink:href="#CMSS17-57"/>
     <use transform="translate(240.584138 0)scale(0.996264)" xlink:href="#CMSS17-93"/>
    </g>
   </g>
   <g id="text_21">
    <!-- [21,716] -->
    <defs>
     <path d="M 25.796875 21.203125 
C 28.59375 24.078125 32.796875 27.5625 35.703125 31.046875 
C 38.5 34.4375 42.203125 39.234375 42.203125 46.203125 
C 42.203125 57.140625 34.796875 67 22.203125 67 
C 12.296875 67 6.59375 60.828125 3.90625 51.15625 
L 7.796875 45.765625 
C 10 54.84375 13.09375 60.625 20.90625 60.625 
C 29.5 60.625 34.296875 53.640625 34.296875 45.96875 
C 34.296875 36.796875 27.296875 29.703125 22 24.421875 
C 16.09375 18.546875 10.296875 12.5625 4.703125 6.375 
L 4.703125 0 
L 42.203125 0 
L 42.203125 6.765625 
L 25.203125 6.765625 
C 24 6.765625 22.796875 6.765625 21.59375 6.765625 
L 11.59375 6.765625 
L 11.59375 6.859375 
z
" id="CMSS17-50"/>
     <path d="M 28.40625 67 
L 26.5 67 
C 21.09375 61.5625 14.796875 60.78125 8.40625 60.78125 
L 8.40625 55 
C 11.296875 55 16 55 20.703125 57.296875 
L 20.703125 5.765625 
L 8.90625 5.765625 
L 8.90625 0 
L 40.203125 0 
L 40.203125 5.765625 
L 28.40625 5.765625 
z
" id="CMSS17-49"/>
     <path d="M 21.703125 59 
C 22.90625 59 24.09375 59 25.296875 59 
L 36.796875 59 
C 22.5 42.359375 14.296875 21.328125 14.296875 -0.5 
L 22.296875 -0.5 
C 22.296875 20.671875 29.296875 42.125 43 59.296875 
L 43 65.765625 
L 3.90625 65.765625 
L 3.90625 59 
z
" id="CMSS17-55"/>
    </defs>
    <g transform="translate(185.284772 271.416602)scale(0.13 -0.13)">
     <use transform="scale(0.996264)" xlink:href="#CMSS17-91"/>
     <use transform="translate(27.185439 0)scale(0.996264)" xlink:href="#CMSS17-50"/>
     <use transform="translate(74.029062 0)scale(0.996264)" xlink:href="#CMSS17-49"/>
     <use transform="translate(120.872686 0)scale(0.996264)" xlink:href="#CMSS17-44"/>
     <use transform="translate(146.896891 0)scale(0.996264)" xlink:href="#CMSS17-55"/>
     <use transform="translate(193.740514 0)scale(0.996264)" xlink:href="#CMSS17-49"/>
     <use transform="translate(240.584138 0)scale(0.996264)" xlink:href="#CMSS17-54"/>
     <use transform="translate(287.427761 0)scale(0.996264)" xlink:href="#CMSS17-93"/>
    </g>
   </g>
   <g id="text_22">
    <!-- [38,751] -->
    <g transform="translate(255.253424 255.923661)scale(0.13 -0.13)">
     <use transform="scale(0.996264)" xlink:href="#CMSS17-91"/>
     <use transform="translate(27.185439 0)scale(0.996264)" xlink:href="#CMSS17-51"/>
     <use transform="translate(74.029062 0)scale(0.996264)" xlink:href="#CMSS17-56"/>
     <use transform="translate(120.872686 0)scale(0.996264)" xlink:href="#CMSS17-44"/>
     <use transform="translate(146.896891 0)scale(0.996264)" xlink:href="#CMSS17-55"/>
     <use transform="translate(193.740514 0)scale(0.996264)" xlink:href="#CMSS17-53"/>
     <use transform="translate(240.584138 0)scale(0.996264)" xlink:href="#CMSS17-49"/>
     <use transform="translate(287.427761 0)scale(0.996264)" xlink:href="#CMSS17-93"/>
    </g>
   </g>
   <g id="text_23">
    <!-- [134,421] -->
    <defs>
     <path d="M 35.203125 17 
L 44.296875 17 
L 44.296875 23.078125 
L 35.203125 23.078125 
L 35.203125 65.5 
L 26.40625 65.5 
L 2.59375 23.078125 
L 2.59375 17 
L 27.296875 17 
L 27.296875 0 
L 35.203125 0 
z
M 10.296875 23.078125 
C 16.09375 33.234375 27.59375 53.734375 27.59375 60.703125 
L 27.59375 23.078125 
z
" id="CMSS17-52"/>
    </defs>
    <g transform="translate(327.882427 173.689495)scale(0.13 -0.13)">
     <use transform="scale(0.996264)" xlink:href="#CMSS17-91"/>
     <use transform="translate(27.185439 0)scale(0.996264)" xlink:href="#CMSS17-49"/>
     <use transform="translate(74.029062 0)scale(0.996264)" xlink:href="#CMSS17-51"/>
     <use transform="translate(120.872686 0)scale(0.996264)" xlink:href="#CMSS17-52"/>
     <use transform="translate(167.716309 0)scale(0.996264)" xlink:href="#CMSS17-44"/>
     <use transform="translate(193.740514 0)scale(0.996264)" xlink:href="#CMSS17-52"/>
     <use transform="translate(240.584138 0)scale(0.996264)" xlink:href="#CMSS17-50"/>
     <use transform="translate(287.427761 0)scale(0.996264)" xlink:href="#CMSS17-49"/>
     <use transform="translate(334.271385 0)scale(0.996264)" xlink:href="#CMSS17-93"/>
    </g>
   </g>
   <g id="text_24">
    <!-- [341,213- -->
    <defs>
     <path d="M 26 19 
L 26 24.765625 
L 1 24.765625 
L 1 19 
z
" id="CMSS17-45"/>
    </defs>
    <g transform="translate(415.062184 38.734146)scale(0.13 -0.13)">
     <use transform="scale(0.996264)" xlink:href="#CMSS17-91"/>
     <use transform="translate(27.185439 0)scale(0.996264)" xlink:href="#CMSS17-51"/>
     <use transform="translate(74.029062 0)scale(0.996264)" xlink:href="#CMSS17-52"/>
     <use transform="translate(120.872686 0)scale(0.996264)" xlink:href="#CMSS17-49"/>
     <use transform="translate(167.716309 0)scale(0.996264)" xlink:href="#CMSS17-44"/>
     <use transform="translate(193.740514 0)scale(0.996264)" xlink:href="#CMSS17-50"/>
     <use transform="translate(240.584138 0)scale(0.996264)" xlink:href="#CMSS17-49"/>
     <use transform="translate(287.427761 0)scale(0.996264)" xlink:href="#CMSS17-51"/>
     <use transform="translate(334.271385 0)scale(0.996264)" xlink:href="#CMSS17-45"/>
    </g>
    <!-- 369,536] -->
    <g transform="translate(417.175764 53.628293)scale(0.13 -0.13)">
     <use transform="scale(0.996264)" xlink:href="#CMSS17-51"/>
     <use transform="translate(46.843624 0)scale(0.996264)" xlink:href="#CMSS17-54"/>
     <use transform="translate(93.687247 0)scale(0.996264)" xlink:href="#CMSS17-57"/>
     <use transform="translate(140.530871 0)scale(0.996264)" xlink:href="#CMSS17-44"/>
     <use transform="translate(166.555075 0)scale(0.996264)" xlink:href="#CMSS17-53"/>
     <use transform="translate(213.398699 0)scale(0.996264)" xlink:href="#CMSS17-51"/>
     <use transform="translate(260.242322 0)scale(0.996264)" xlink:href="#CMSS17-54"/>
     <use transform="translate(307.085946 0)scale(0.996264)" xlink:href="#CMSS17-93"/>
    </g>
   </g>
   <g id="legend_1">
    <g id="patch_45">
     <path d="M 68.262353 175.912737 
L 268.194784 175.912737 
Q 270.794784 175.912737 270.794784 173.312737 
L 270.794784 27 
Q 270.794784 24.4 268.194784 24.4 
L 68.262353 24.4 
Q 65.662353 24.4 65.662353 27 
L 65.662353 173.312737 
Q 65.662353 175.912737 68.262353 175.912737 
z
" style="fill:#ffffff;opacity:0.8;stroke:#cccccc;stroke-linejoin:miter;"/>
    </g>
    <g id="patch_46">
     <path d="M 70.862353 38.7 
L 96.862353 38.7 
L 96.862353 29.6 
L 70.862353 29.6 
z
" style="fill:#d53e4f;stroke:#636363;stroke-linejoin:miter;"/>
    </g>
    <g id="text_25">
     <!-- AR1 -->
     <defs>
      <path d="M 35.5 69 
L 26.90625 69 
L 2.59375 0 
L 10.203125 0 
L 17.203125 20 
L 44 20 
L 51.09375 0 
L 59.796875 0 
z
M 42.09375 25.578125 
L 19.09375 25.578125 
C 23.90625 39.5 29.90625 56.84375 30.59375 61.328125 
L 30.703125 61.328125 
C 31.40625 57.234375 33.40625 51.265625 35.09375 46.1875 
z
" id="CMSS17-65"/>
      <path d="M 39.40625 32.953125 
L 39.59375 33.046875 
C 55.203125 38.421875 55.296875 49.171875 55.296875 51.0625 
C 55.296875 60.515625 45.703125 69.578125 31.296875 69.578125 
L 8.90625 69.578125 
L 8.90625 0.5 
L 17.09375 0.5 
L 17.09375 32 
L 31.796875 32 
L 49.5 0.5 
L 57.90625 0.5 
z
M 17.09375 38.078125 
L 17.09375 64 
L 30.203125 64 
C 42.90625 64 47.40625 56.828125 47.40625 51.046875 
C 47.40625 45.65625 43.40625 38.078125 30.203125 38.078125 
z
" id="CMSS17-82"/>
     </defs>
     <g transform="translate(107.262353 38.7)scale(0.13 -0.13)">
      <use transform="scale(0.996264)" xlink:href="#CMSS17-65"/>
      <use transform="translate(62.217855 0)scale(0.996264)" xlink:href="#CMSS17-82"/>
      <use transform="translate(122.63401 0)scale(0.996264)" xlink:href="#CMSS17-49"/>
     </g>
    </g>
    <g id="patch_47">
     <path d="M 70.862353 56.818312 
L 96.862353 56.818312 
L 96.862353 47.718312 
L 70.862353 47.718312 
z
" style="fill:#fc8d59;stroke:#636363;stroke-linejoin:miter;"/>
    </g>
    <g id="text_26">
     <!-- AR2 -->
     <g transform="translate(107.262353 56.818312)scale(0.13 -0.13)">
      <use transform="scale(0.996264)" xlink:href="#CMSS17-65"/>
      <use transform="translate(62.217855 0)scale(0.996264)" xlink:href="#CMSS17-82"/>
      <use transform="translate(122.63401 0)scale(0.996264)" xlink:href="#CMSS17-50"/>
     </g>
    </g>
    <g id="patch_48">
     <path d="M 70.862353 74.936624 
L 96.862353 74.936624 
L 96.862353 65.836624 
L 70.862353 65.836624 
z
" style="fill:#fee08b;stroke:#636363;stroke-linejoin:miter;"/>
    </g>
    <g id="text_27">
     <!-- AR3 -->
     <g transform="translate(107.262353 74.936624)scale(0.13 -0.13)">
      <use transform="scale(0.996264)" xlink:href="#CMSS17-65"/>
      <use transform="translate(62.217855 0)scale(0.996264)" xlink:href="#CMSS17-82"/>
      <use transform="translate(122.63401 0)scale(0.996264)" xlink:href="#CMSS17-51"/>
     </g>
    </g>
    <g id="patch_49">
     <path d="M 70.862353 93.054936 
L 96.862353 93.054936 
L 96.862353 83.954936 
L 70.862353 83.954936 
z
" style="fill:#e6f598;stroke:#636363;stroke-linejoin:miter;"/>
    </g>
    <g id="text_28">
     <!-- AR4 -->
     <g transform="translate(107.262353 93.054936)scale(0.13 -0.13)">
      <use transform="scale(0.996264)" xlink:href="#CMSS17-65"/>
      <use transform="translate(62.217855 0)scale(0.996264)" xlink:href="#CMSS17-82"/>
      <use transform="translate(122.63401 0)scale(0.996264)" xlink:href="#CMSS17-52"/>
     </g>
    </g>
    <g id="patch_50">
     <path d="M 70.862353 111.173248 
L 96.862353 111.173248 
L 96.862353 102.073248 
L 70.862353 102.073248 
z
" style="fill:#99d594;stroke:#636363;stroke-linejoin:miter;"/>
    </g>
    <g id="text_29">
     <!-- AR5 -->
     <g transform="translate(107.262353 111.173248)scale(0.13 -0.13)">
      <use transform="scale(0.996264)" xlink:href="#CMSS17-65"/>
      <use transform="translate(62.217855 0)scale(0.996264)" xlink:href="#CMSS17-82"/>
      <use transform="translate(122.63401 0)scale(0.996264)" xlink:href="#CMSS17-53"/>
     </g>
    </g>
    <g id="patch_51">
     <path d="M 70.862353 129.29156 
L 96.862353 129.29156 
L 96.862353 120.19156 
L 70.862353 120.19156 
z
" style="fill:#3288bd;stroke:#636363;stroke-linejoin:miter;"/>
    </g>
    <g id="text_30">
     <!-- AR6 -->
     <g transform="translate(107.262353 129.29156)scale(0.13 -0.13)">
      <use transform="scale(0.996264)" xlink:href="#CMSS17-65"/>
      <use transform="translate(62.217855 0)scale(0.996264)" xlink:href="#CMSS17-82"/>
      <use transform="translate(122.63401 0)scale(0.996264)" xlink:href="#CMSS17-54"/>
     </g>
    </g>
    <g id="patch_52">
     <path d="M 70.862353 148.023446 
L 96.862353 148.023446 
L 96.862353 138.923446 
L 70.862353 138.923446 
z
" style="fill:#3288bd;opacity:0.75;stroke:#636363;stroke-linejoin:miter;"/>
    </g>
    <g id="text_31">
     <!-- Projections (no growth) -->
     <defs>
      <path d="M 17.40625 66 
L 9 66 
L 9 57.640625 
L 17.40625 57.640625 
z
M -5.796875 -16.625 
C -2.59375 -18.609375 1.296875 -20 5.5 -20 
C 11.796875 -20 17.40625 -14.609375 17.40625 -5.71875 
L 17.40625 43.234375 
L 10 43.234375 
L 10 -6.640625 
C 10 -12.734375 5.40625 -13.640625 2.796875 -13.640625 
C 0.59375 -13.640625 -2 -12.9375 -4.296875 -10.546875 
z
" id="CMSS17-106"/>
      <path d="M 25.203125 74.5 
C 19.796875 69.015625 7.40625 56.265625 7.40625 24.8125 
C 7.40625 -6.765625 19.796875 -19.421875 25.203125 -25 
L 31.296875 -25 
C 19 -12.25 15 5.578125 15 24.703125 
C 15 43.71875 18.796875 61.65625 31.296875 74.5 
z
" id="CMSS17-40"/>
      <path d="M 44.5 43.875 
C 38.796875 43.875 33.90625 42.78125 29.90625 40.890625 
C 26.59375 43.390625 23.203125 43.875 20.90625 43.875 
C 12.203125 43.875 5.59375 36.703125 5.59375 28.34375 
C 5.59375 22.9375 8.59375 18.859375 8.796875 18.671875 
C 7 16.171875 6 13.484375 6 10.5 
C 6 7 7.40625 4.515625 8.5 3.125 
C 3.296875 -0.046875 2.59375 -4.90625 2.59375 -6.796875 
C 2.59375 -14.03125 11.703125 -20 23.40625 -20 
C 35.203125 -20 44.296875 -14.03125 44.296875 -6.6875 
C 44.296875 7 29 7 24.796875 7 
L 16.703125 7 
C 15.203125 7 11.203125 7 11.203125 12.359375 
C 11.203125 14.390625 12.09375 15.6875 12.203125 15.78125 
C 13.703125 14.6875 16.796875 13 20.90625 13 
C 29.203125 13 36.09375 19.96875 36.09375 28.546875 
C 36.09375 33.3125 33.90625 36.796875 33 38 
L 33.296875 38 
C 33.59375 38 37.796875 38 39.296875 38 
C 42.5 38 42.796875 37.953125 45.59375 37.796875 
z
M 20.90625 18.46875 
C 17.5 18.46875 12.703125 20.546875 12.703125 28.484375 
C 12.703125 37.109375 18.203125 38.5 20.796875 38.5 
C 24.203125 38.5 29 36.421875 29 28.484375 
C 29 19.859375 23.5 18.46875 20.90625 18.46875 
z
M 24.703125 -0.15625 
C 27.09375 -0.15625 37.203125 -0.15625 37.203125 -6.90625 
C 37.203125 -11.15625 31 -14.515625 23.5 -14.515625 
C 15.90625 -14.515625 9.703125 -11.25 9.703125 -6.796875 
C 9.703125 -6.296875 9.703125 -0.15625 16.59375 -0.15625 
z
" id="CMSS17-103"/>
      <path d="M 62.703125 43 
L 55.09375 43 
L 49.796875 25.015625 
C 48.703125 21.21875 45.59375 10.703125 45.203125 5.796875 
L 45.09375 5.796875 
C 44.90625 8.8125 43.203125 16 40.40625 25.515625 
L 35.296875 43 
L 28.40625 43 
L 23.40625 25.90625 
C 20.90625 17.203125 19 9.796875 18.796875 5.796875 
L 18.703125 5.796875 
C 18.296875 11.703125 14.203125 25.515625 13.59375 27.703125 
L 9.09375 43 
L 1.296875 43 
L 14.296875 0 
L 21.90625 0 
C 27.09375 17.125 31.09375 30.359375 31.40625 37.03125 
C 31.59375 33.75 33.296875 26.671875 34.296875 23.1875 
L 40.90625 0 
L 49.703125 0 
z
" id="CMSS17-119"/>
      <path d="M 40.90625 29.546875 
C 40.90625 35.8125 39.40625 44.0625 28.09375 44.0625 
C 21.796875 44.0625 17.703125 40.984375 14.796875 37.609375 
L 14.796875 69.5 
L 7.40625 69.5 
L 7.40625 0.5 
L 15 0.5 
L 15 24.578125 
C 15 30.828125 17.40625 38 24.203125 38 
C 33 38 33.296875 32.125 33.296875 28.734375 
L 33.296875 0.5 
L 40.90625 0.5 
z
" id="CMSS17-104"/>
      <path d="M 11.296875 -25 
C 16.703125 -19.515625 29.09375 -6.765625 29.09375 24.703125 
C 29.09375 56.265625 16.703125 68.921875 11.296875 74.5 
L 5.203125 74.5 
C 17.5 61.75 21.5 43.921875 21.5 24.8125 
C 21.5 5.78125 17.703125 -12.15625 5.203125 -25 
z
" id="CMSS17-41"/>
     </defs>
     <g transform="translate(107.262353 148.023446)scale(0.13 -0.13)">
      <use transform="scale(0.996264)" xlink:href="#CMSS17-80"/>
      <use transform="translate(59.735586 0)scale(0.996264)" xlink:href="#CMSS17-114"/>
      <use transform="translate(91.645359 0)scale(0.996264)" xlink:href="#CMSS17-111"/>
      <use transform="translate(138.488982 0)scale(0.996264)" xlink:href="#CMSS17-106"/>
      <use transform="translate(163.272068 0)scale(0.996264)" xlink:href="#CMSS17-101"/>
      <use transform="translate(204.91089 0)scale(0.996264)" xlink:href="#CMSS17-99"/>
      <use transform="translate(246.549712 0)scale(0.996264)" xlink:href="#CMSS17-116"/>
      <use transform="translate(280.381279 0)scale(0.996264)" xlink:href="#CMSS17-105"/>
      <use transform="translate(302.562002 0)scale(0.996264)" xlink:href="#CMSS17-111"/>
      <use transform="translate(349.405626 0)scale(0.996264)" xlink:href="#CMSS17-110"/>
      <use transform="translate(397.610569 0)scale(0.996264)" xlink:href="#CMSS17-115"/>
      <use transform="translate(464.753223 0)scale(0.996264)" xlink:href="#CMSS17-40"/>
      <use transform="translate(501.187138 0)scale(0.996264)" xlink:href="#CMSS17-110"/>
      <use transform="translate(549.392081 0)scale(0.996264)" xlink:href="#CMSS17-111"/>
      <use transform="translate(627.464817 0)scale(0.996264)" xlink:href="#CMSS17-103"/>
      <use transform="translate(674.308441 0)scale(0.996264)" xlink:href="#CMSS17-114"/>
      <use transform="translate(706.218213 0)scale(0.996264)" xlink:href="#CMSS17-111"/>
      <use transform="translate(750.459383 0)scale(0.996264)" xlink:href="#CMSS17-119"/>
      <use transform="translate(814.278928 0)scale(0.996264)" xlink:href="#CMSS17-116"/>
      <use transform="translate(848.110494 0)scale(0.996264)" xlink:href="#CMSS17-104"/>
      <use transform="translate(896.315438 0)scale(0.996264)" xlink:href="#CMSS17-41"/>
     </g>
    </g>
    <g id="patch_53">
     <path d="M 70.862353 167.474879 
L 96.862353 167.474879 
L 96.862353 158.374879 
L 70.862353 158.374879 
z
" style="fill:url(#h2f33a94856);opacity:0.75;stroke:#636363;stroke-linejoin:miter;"/>
    </g>
    <g id="text_32">
     <!-- Projections (constant growth) -->
     <g transform="translate(107.262353 167.474879)scale(0.13 -0.13)">
      <use transform="scale(0.996264)" xlink:href="#CMSS17-80"/>
      <use transform="translate(59.735586 0)scale(0.996264)" xlink:href="#CMSS17-114"/>
      <use transform="translate(91.645359 0)scale(0.996264)" xlink:href="#CMSS17-111"/>
      <use transform="translate(138.488982 0)scale(0.996264)" xlink:href="#CMSS17-106"/>
      <use transform="translate(163.272068 0)scale(0.996264)" xlink:href="#CMSS17-101"/>
      <use transform="translate(204.91089 0)scale(0.996264)" xlink:href="#CMSS17-99"/>
      <use transform="translate(246.549712 0)scale(0.996264)" xlink:href="#CMSS17-116"/>
      <use transform="translate(280.381279 0)scale(0.996264)" xlink:href="#CMSS17-105"/>
      <use transform="translate(302.562002 0)scale(0.996264)" xlink:href="#CMSS17-111"/>
      <use transform="translate(349.405626 0)scale(0.996264)" xlink:href="#CMSS17-110"/>
      <use transform="translate(397.610569 0)scale(0.996264)" xlink:href="#CMSS17-115"/>
      <use transform="translate(464.753223 0)scale(0.996264)" xlink:href="#CMSS17-40"/>
      <use transform="translate(501.187138 0)scale(0.996264)" xlink:href="#CMSS17-99"/>
      <use transform="translate(542.82596 0)scale(0.996264)" xlink:href="#CMSS17-111"/>
      <use transform="translate(589.669583 0)scale(0.996264)" xlink:href="#CMSS17-110"/>
      <use transform="translate(637.874526 0)scale(0.996264)" xlink:href="#CMSS17-115"/>
      <use transform="translate(673.788068 0)scale(0.996264)" xlink:href="#CMSS17-116"/>
      <use transform="translate(707.619635 0)scale(0.996264)" xlink:href="#CMSS17-97"/>
      <use transform="translate(752.541556 0)scale(0.996264)" xlink:href="#CMSS17-110"/>
      <use transform="translate(800.746499 0)scale(0.996264)" xlink:href="#CMSS17-116"/>
      <use transform="translate(865.807178 0)scale(0.996264)" xlink:href="#CMSS17-103"/>
      <use transform="translate(912.650802 0)scale(0.996264)" xlink:href="#CMSS17-114"/>
      <use transform="translate(944.560574 0)scale(0.996264)" xlink:href="#CMSS17-111"/>
      <use transform="translate(988.801744 0)scale(0.996264)" xlink:href="#CMSS17-119"/>
      <use transform="translate(1052.621289 0)scale(0.996264)" xlink:href="#CMSS17-116"/>
      <use transform="translate(1086.452856 0)scale(0.996264)" xlink:href="#CMSS17-104"/>
      <use transform="translate(1134.657799 0)scale(0.996264)" xlink:href="#CMSS17-41"/>
     </g>
    </g>
   </g>
  </g>
 </g>
 <defs>
  <clipPath id="p7cca4782da">
   <rect height="277.2" width="446.4" x="59.162353" y="17.9"/>
  </clipPath>
 </defs>
 <defs>
  <pattern height="72" id="h2f33a94856" patternUnits="userSpaceOnUse" width="72" x="0" y="0">
   <rect fill="#3288bd" height="73" width="73" x="0" y="0"/>
   <path d="M -36 36 
L 36 -36 
M -30 42 
L 42 -30 
M -24 48 
L 48 -24 
M -18 54 
L 54 -18 
M -12 60 
L 60 -12 
M -6 66 
L 66 -6 
M 0 72 
L 72 0 
M 6 78 
L 78 6 
M 12 84 
L 84 12 
M 18 90 
L 90 18 
M 24 96 
L 96 24 
M 30 102 
L 102 30 
M 36 108 
L 108 36 
" style="fill:#636363;stroke:#636363;stroke-linecap:butt;stroke-linejoin:miter;stroke-width:1.0;"/>
  </pattern>
 </defs>
</svg>
