<?xml version="1.0" encoding="UTF-8" standalone="no"?>
<svg xmlns:dc="http://purl.org/dc/elements/1.1/" xmlns:cc="http://web.resource.org/cc/" xmlns:rdf="http://www.w3.org/1999/02/22-rdf-syntax-ns#" xmlns:svg="http://www.w3.org/2000/svg" xmlns="http://www.w3.org/2000/svg" xmlns:sodipodi="http://sodipodi.sourceforge.net/DTD/sodipodi-0.dtd" xmlns:inkscape="http://www.inkscape.org/namespaces/inkscape" id="svg2244" sodipodi:version="0.32" inkscape:version="0.45.1" width="352" height="101.88" version="1.0" sodipodi:docbase="/home/alex32h/Desktop" sodipodi:docname="Leeds University logo.svg" inkscape:output_extension="org.inkscape.output.svg.inkscape">
  <defs id="defs2247"/>
  <sodipodi:namedview inkscape:window-height="975" inkscape:window-width="1680" inkscape:pageshadow="2" inkscape:pageopacity="0.0" guidetolerance="10.0" gridtolerance="10.0" objecttolerance="10.0" borderopacity="1.0" bordercolor="#666666" pagecolor="#ffffff" id="base" inkscape:zoom="4.2116129" inkscape:cx="187.33645" inkscape:cy="41.460912" inkscape:window-x="0" inkscape:window-y="25" inkscape:current-layer="g2253" width="352px" height="101.88px"/>
  <g id="g2253" transform="translate(13.356675,-812.59367)">
    <path style="fill:#000000;fill-opacity:1" d="M -3.6737516,913.35895 C -8.3944628,913.03082 -11.052852,911.0781 -12.069017,907.19218 C -12.310402,906.2691 -12.318056,906.02618 -12.361899,897.89725 L -12.40692,889.55019 L -9.8920741,889.55019 L -7.3772292,889.55019 L -7.3772292,897.27832 C -7.3772292,904.05345 -7.3545844,905.08278 -7.1935914,905.62539 C -6.4747009,908.04835 -4.826193,909.19831 -2.1023639,909.17691 C 0.75276754,909.15449 2.4337143,907.86925 2.8631092,905.38035 C 2.950811,904.87199 2.9925075,902.20063 2.9925075,897.09025 L 2.9925075,889.55019 L 5.4994769,889.55019 L 8.0064464,889.55019 L 8.0045923,896.58679 C 8.0022198,905.58859 7.9217165,906.57139 7.0242409,908.55514 C 5.786852,911.29024 2.9029199,913.06214 -0.7109696,913.30771 C -1.2750377,913.34604 -1.8903848,913.39285 -2.0784075,913.41174 C -2.2664302,913.43062 -2.9843351,913.40687 -3.6737516,913.35895 z M 120.64914,913.33557 C 119.3316,913.22463 117.66679,912.82788 116.6038,912.37148 C 115.57601,911.9302 114.43869,911.28598 114.43869,911.1451 C 114.43869,911.03029 116.16509,907.7276 116.29084,907.60185 C 116.32577,907.56692 116.57714,907.67913 116.84942,907.85121 C 119.91187,909.7866 123.75333,909.85957 125.01719,908.00636 C 125.24755,907.66859 125.27791,907.51569 125.22803,906.94465 C 125.11185,905.61485 124.35034,904.90827 121.27588,903.27765 C 120.24175,902.72917 119.0367,902.03677 118.59798,901.73896 C 116.94994,900.62028 115.96654,899.38378 115.49911,897.84257 C 115.242,896.99479 115.24777,895.05357 115.51005,894.16529 C 116.039,892.37386 117.40639,890.83709 119.16245,890.06049 C 120.43904,889.49592 121.54426,889.29046 123.32703,889.28628 C 125.44748,889.28132 127.24603,889.64947 128.82527,890.41172 L 129.25259,890.61798 L 129.25259,892.74299 C 129.25259,893.91174 129.22085,894.89976 129.18203,894.93856 C 129.14322,894.97737 128.75768,894.83096 128.32528,894.61321 C 125.91695,893.40038 123.80384,893.01212 122.20139,893.488 C 121.03015,893.83582 120.32484,894.86199 120.59472,895.82559 C 120.89647,896.90296 121.71011,897.58238 124.34909,898.96064 C 126.79857,900.23992 127.9034,900.98042 128.83321,901.96607 C 130.09097,903.29935 130.53937,904.47061 130.53651,906.41526 C 130.53505,907.40551 130.48274,907.76573 130.23297,908.50492 C 129.08709,911.89636 125.4327,913.73833 120.64914,913.33557 z M 203.83494,913.35257 C 200.4293,913.05204 197.85672,911.8673 195.89716,909.69701 C 193.22689,906.73957 192.29424,902.05235 193.51266,897.71316 C 194.36342,894.68334 196.42458,892.10764 199.12988,890.6937 C 203.15669,888.58906 208.62113,888.79903 212.33431,891.20107 C 215.85417,893.47805 217.70165,897.88399 217.16816,902.72898 C 216.88242,905.324 216.11468,907.31997 214.74214,909.03617 C 212.82142,911.4378 209.67456,913.08029 206.56754,913.30289 C 205.94204,913.3477 205.32772,913.39983 205.20237,913.41874 C 205.07703,913.43765 204.46168,913.40787 203.83494,913.35257 z M 207.0826,909.08656 C 209.36719,908.41896 211.00597,906.58672 211.71409,903.90828 C 211.96515,902.95866 211.99612,900.19369 211.7677,899.12225 C 211.17846,896.35833 209.52126,894.40842 207.1147,893.64742 C 206.03092,893.30471 204.26357,893.30097 203.13497,893.63899 C 200.77647,894.34538 199.25163,895.98557 198.51408,898.60946 C 198.1628,899.85918 198.11025,902.19049 198.40237,903.56642 C 199.09803,906.84325 201.13668,908.87084 204.1768,909.30954 C 204.79799,909.39918 206.44537,909.27277 207.0826,909.08656 z M 327.30318,913.2882 C 326.47918,913.22653 324.81422,912.79485 323.80439,912.38106 C 322.76683,911.95589 321.45954,911.22663 321.51363,911.10317 C 321.63522,910.82566 323.25177,907.81462 323.3382,907.70468 C 323.41627,907.60536 323.75094,907.73081 324.60456,908.17939 C 326.23557,909.03647 327.17518,909.29389 328.72759,909.30892 C 329.68008,909.31814 330.12723,909.27014 330.58974,909.10903 C 331.64578,908.74115 332.33201,907.95702 332.33126,907.11909 C 332.32999,905.70278 331.51243,904.91892 328.27178,903.22694 C 323.87833,900.93307 322.40319,899.12793 322.40319,896.04552 C 322.40319,892.75516 324.44431,890.37354 327.98652,889.53075 C 329.95527,889.06233 333.16401,889.31079 334.97636,890.07198 C 335.36266,890.23423 335.81975,890.4252 335.99211,890.49635 L 336.30548,890.62573 L 336.30548,892.82283 C 336.30548,894.03125 336.28643,895.01994 336.26315,895.01994 C 336.23987,895.01994 335.68861,894.76635 335.03815,894.45641 C 333.28446,893.62077 332.29856,893.37139 330.77876,893.379 C 329.34282,893.38619 328.76666,893.57521 328.12279,894.2503 C 327.8178,894.57008 327.73507,894.76272 327.68916,895.26003 C 327.63991,895.79359 327.677,895.95059 327.97057,896.45125 C 328.4342,897.24193 329.20615,897.8017 331.47043,898.98914 C 334.36686,900.50811 335.46575,901.28597 336.34776,902.44162 C 337.30148,903.69126 337.60465,904.67223 337.5934,906.47223 C 337.58595,907.66501 337.54643,907.93929 337.28395,908.61964 C 336.35487,911.02785 334.39833,912.52849 331.3876,913.14211 C 330.34784,913.35402 328.88283,913.40643 327.30318,913.2882 z M 59.193925,912.42899 C 57.965343,909.45894 50.015423,889.91148 49.970263,889.74961 C 49.918393,889.56369 50.099426,889.55019 52.645157,889.55019 L 55.375686,889.55019 L 57.635556,895.44727 C 58.878483,898.69065 60.312573,902.45685 60.822424,903.81658 L 61.749424,906.28883 L 62.067029,905.31358 C 62.446031,904.14978 63.279829,902.10396 66.29714,894.93448 L 68.563142,889.55019 L 71.103303,889.55019 C 72.500392,889.55019 73.643464,889.59331 73.643464,889.64602 C 73.643464,889.69872 71.318595,895.01891 68.47709,901.46866 L 63.310716,913.19547 L 61.423753,913.22666 L 59.536791,913.25785 L 59.193925,912.42899 z M 14.159918,901.34434 L 14.159918,889.55019 L 16.695375,889.55073 L 19.230833,889.55126 L 24.284408,895.98174 C 27.063874,899.51851 29.730378,902.964 30.209972,903.6384 L 31.081961,904.86459 L 31.111252,897.20739 L 31.140542,889.55019 L 33.589733,889.55019 L 36.038923,889.55019 L 36.038923,901.3467 L 36.038923,913.14321 L 33.740921,913.11236 L 31.44292,913.08151 L 29.570604,910.6885 C 24.169262,903.78501 20.179997,898.6353 19.679272,897.91986 L 19.11688,897.1163 L 19.154661,905.1274 L 19.192443,913.13849 L 16.67618,913.13849 L 14.159918,913.13849 L 14.159918,901.34434 z M 42.534254,901.34434 L 42.534254,889.55019 L 45.041223,889.55019 L 47.548192,889.55019 L 47.548192,901.34434 L 47.548192,913.13849 L 45.041223,913.13849 L 42.534254,913.13849 L 42.534254,901.34434 z M 76.37834,901.34434 L 76.37834,889.55019 L 83.21553,889.55019 C 86.975983,889.55019 90.052719,889.59319 90.052719,889.64574 C 90.052719,889.69829 89.768932,890.62131 89.422083,891.69689 L 88.791447,893.6525 L 85.091863,893.6525 L 81.392279,893.6525 L 81.392279,896.3304 L 81.392279,899.0083 L 85.095757,899.0083 L 88.799235,899.0083 L 88.799235,901.05946 L 88.799235,903.11061 L 85.095757,903.11061 L 81.392279,903.11061 L 81.392279,906.01642 L 81.392279,908.92222 L 85.722499,908.92222 L 90.052719,908.92222 L 90.052719,911.03036 L 90.052719,913.13849 L 83.21553,913.13849 L 76.37834,913.13849 L 76.37834,901.34434 z M 95.294564,901.33541 L 95.294564,889.53234 L 99.938156,889.57969 C 104.23016,889.62346 104.65286,889.64556 105.52106,889.87159 C 108.13029,890.55087 109.82519,892.0192 110.46625,894.15572 C 110.75749,895.12636 110.81124,896.92161 110.57741,897.86877 C 110.17016,899.51844 108.89692,901.0929 107.20682,902.03676 L 106.57911,902.38731 L 106.93127,902.72047 C 107.47205,903.23207 108.16461,904.16777 109.16837,905.74296 C 110.09446,907.19627 113.38892,912.71496 113.49425,912.98943 C 113.54042,913.10976 113.00242,913.13849 110.7032,913.13849 L 107.85497,913.13849 L 106.1143,910.14722 C 104.03912,906.58103 103.0524,905.02696 102.49673,904.44956 C 102.09052,904.02746 102.07463,904.02223 101.197,904.02223 L 100.30851,904.02223 L 100.30851,908.58036 L 100.30851,913.13849 L 97.801534,913.13849 L 95.294564,913.13849 L 95.294564,901.33541 z M 102.80075,900.25622 C 103.68278,900.1131 104.2175,899.85122 104.77928,899.28723 C 105.40753,898.65651 105.70885,897.95442 105.75878,897.00495 C 105.81326,895.96875 105.50779,895.20246 104.78745,894.5684 C 104.07112,893.93785 103.46091,893.75954 101.76139,893.68418 L 100.30851,893.61975 L 100.30851,896.99774 L 100.30851,900.37574 L 101.19163,900.37488 C 101.67735,900.37441 102.40145,900.32101 102.80075,900.25622 z M 134.49444,901.34434 L 134.49444,889.55019 L 136.94444,889.55019 L 139.39443,889.55019 L 139.39443,901.34434 L 139.39443,913.13849 L 136.94444,913.13849 L 134.49444,913.13849 L 134.49444,901.34434 z M 149.65021,903.39549 L 149.65021,893.6525 L 146.17464,893.6525 L 142.69907,893.6525 L 142.69907,891.60134 L 142.69907,889.55019 L 152.38727,889.55019 L 162.07544,889.55019 L 161.99703,889.86356 C 161.95391,890.03591 161.70454,890.94611 161.44286,891.88623 L 160.96709,893.59552 L 157.81563,893.62581 L 154.66415,893.6561 L 154.66415,903.3973 L 154.66415,913.13849 L 152.15719,913.13849 L 149.65021,913.13849 L 149.65021,903.39549 z M 170.38969,908.46441 L 170.38969,903.79033 L 166.39473,896.83333 C 164.19751,893.00697 162.37127,889.80202 162.33641,889.7112 C 162.28195,889.56929 162.66227,889.55037 165.04168,889.57662 L 167.81031,889.60717 L 169.6191,892.9118 C 170.61395,894.72936 171.78928,896.93136 172.23095,897.80513 L 173.034,899.39382 L 174.02243,897.46328 C 174.56607,896.40148 175.74418,894.18666 176.64045,892.54146 L 178.27005,889.55019 L 180.88218,889.55019 C 182.31884,889.55019 183.4943,889.56765 183.4943,889.58899 C 183.4943,889.61033 181.6739,892.82199 179.44896,896.72603 L 175.40363,903.82428 L 175.40363,908.48138 L 175.40363,913.13849 L 172.89665,913.13849 L 170.38969,913.13849 L 170.38969,908.46441 z M 221.66861,901.34434 L 221.66861,889.55019 L 228.56277,889.55019 C 232.35456,889.55019 235.45574,889.58865 235.45427,889.63565 C 235.4528,889.68266 235.17555,890.59286 234.83816,891.65832 L 234.22471,893.59552 L 230.45363,893.62554 L 226.68255,893.65557 L 226.68255,896.33194 L 226.68255,899.0083 L 230.38106,899.0083 L 234.07956,899.0083 L 234.11302,901.05959 L 234.14647,903.11088 L 230.41451,903.11075 L 226.68255,903.11061 L 226.68255,908.12455 L 226.68255,913.13849 L 224.17557,913.13849 L 221.66861,913.13849 L 221.66861,901.34434 z M 247.19412,901.28736 L 247.19412,889.55019 L 249.70108,889.55019 L 252.20805,889.55019 L 252.20805,899.2362 L 252.20805,908.92222 L 256.31036,908.92222 L 260.41268,908.92222 L 260.41268,910.97338 L 260.41268,913.02454 L 253.8034,913.02454 L 247.19412,913.02454 L 247.19412,901.28736 z M 263.48942,901.28736 L 263.48942,889.55019 L 270.37028,889.55019 L 277.25116,889.55019 L 276.60375,891.57286 L 275.95634,893.59552 L 272.22985,893.62556 L 268.50335,893.65561 L 268.50335,896.33196 L 268.50335,899.0083 L 272.20683,899.0083 L 275.91031,899.0083 L 275.91031,901.05946 L 275.91031,903.11061 L 272.20683,903.11061 L 268.50335,903.11061 L 268.50335,906.01642 L 268.50335,908.92222 L 272.83357,908.92222 L 277.16379,908.92222 L 277.16379,910.97338 L 277.16379,913.02454 L 270.32661,913.02454 L 263.48942,913.02454 L 263.48942,901.28736 z M 281.26611,901.28736 L 281.26611,889.55019 L 288.1033,889.55019 C 293.49829,889.55019 294.94,889.58024 294.93819,889.69263 C 294.93694,889.77097 294.66477,890.68117 294.33338,891.7153 L 293.73085,893.59552 L 290.00544,893.62556 L 286.28005,893.65561 L 286.28005,896.33196 L 286.28005,899.0083 L 290.0405,899.0083 L 293.80095,899.0083 L 293.80095,901.05946 L 293.80095,903.11061 L 290.0405,903.11061 L 286.28005,903.11061 L 286.28005,906.01642 L 286.28005,908.92222 L 290.61026,908.92222 L 294.94048,908.92222 L 294.94048,910.97338 L 294.94048,913.02454 L 288.1033,913.02454 L 281.26611,913.02454 L 281.26611,901.28736 z M 299.0428,901.29661 L 299.0428,889.55019 L 303.1736,889.55278 C 305.44554,889.5542 307.91974,889.60338 308.67184,889.66206 C 315.21743,890.17282 319.3301,893.84325 319.91027,899.69202 C 320.07696,901.37242 319.98118,902.87412 319.61598,904.30615 C 318.50391,908.66686 315.24746,911.58266 310.24581,912.69611 C 309.21198,912.92625 308.74741,912.94872 304.08523,912.99402 L 299.0428,913.04302 L 299.0428,901.29661 z M 309.4329,908.54204 C 312.91749,907.56422 314.82812,904.70325 314.61869,900.77681 C 314.50449,898.63573 313.89713,897.12417 312.64983,895.87688 C 311.08778,894.31484 308.85383,893.66117 305.05383,893.6543 L 304.05674,893.6525 L 304.05674,901.30467 L 304.05674,908.95683 L 306.25033,908.88819 C 308.08795,908.8307 308.60443,908.77452 309.4329,908.54204 z M 272.14985,845.50729 L 272.14985,813.54343 L 304.3986,813.54343 L 336.64734,813.54343 L 336.64734,845.50729 L 336.64734,877.47116 L 332.77293,877.47116 L 328.89852,877.47116 L 328.89852,867.89909 L 328.89852,858.32702 L 326.0497,858.32702 L 323.20086,858.32702 L 323.20086,867.89909 L 323.20086,877.47116 L 322.80203,877.47116 L 322.40319,877.47116 L 322.40319,866.98747 L 322.40319,856.50377 L 317.2753,856.50377 L 312.14741,856.50377 L 312.14741,866.98747 L 312.14741,877.47116 L 311.6916,877.47116 L 311.23579,877.47116 L 311.23579,867.89909 L 311.23579,858.32702 L 308.44394,858.32702 L 305.65208,858.32702 L 305.65208,867.89909 L 305.65208,877.47116 L 288.90097,877.47116 L 272.14985,877.47116 L 272.14985,845.50729 z M 311.23579,856.61773 L 311.23579,855.7061 L 317.21832,855.7061 L 323.20086,855.7061 L 323.20086,856.61773 L 323.20086,857.52935 L 325.42296,857.52935 L 327.64504,857.52935 L 327.64504,855.59215 L 327.64504,853.65494 L 327.2462,853.65494 L 326.84737,853.65494 L 326.84737,847.04566 L 326.84737,840.43638 L 326.22063,840.43638 L 325.59389,840.43638 L 325.59389,836.9608 L 325.59389,833.48524 L 317.2753,833.48524 L 308.95673,833.48524 L 308.95673,836.9608 L 308.95673,840.43638 L 308.32998,840.43638 L 307.70323,840.43638 L 307.70323,847.04566 L 307.70323,853.65494 L 307.3044,853.65494 L 306.90556,853.65494 L 306.90556,855.59215 L 306.90556,857.52935 L 309.07068,857.52935 L 311.23579,857.52935 L 311.23579,856.61773 z M 311.34915,849.52415 C 311.34883,847.2522 311.31545,844.89337 311.27498,844.2823 L 311.20142,843.17125 L 312.81394,843.17125 L 314.42648,843.17125 L 314.42648,844.02591 L 314.42648,844.88055 L 313.40089,844.88055 L 312.37531,844.88055 L 312.37531,849.26774 L 312.37531,853.65494 L 311.86253,853.65494 L 311.34974,853.65494 L 311.34915,849.52415 z M 315.67871,848.84042 C 315.67801,846.19244 315.64567,843.83361 315.60683,843.59857 L 315.53619,843.17125 L 317.14644,843.17125 L 318.75669,843.17125 L 318.75669,844.02591 L 318.75669,844.88055 L 317.73111,844.88055 L 316.70554,844.88055 L 316.70554,849.26774 L 316.70554,853.65494 L 316.19275,853.65494 L 315.67996,853.65494 L 315.67871,848.84042 z M 320.00989,850.72065 C 320.00971,849.10678 319.97594,846.74796 319.93483,845.47881 L 319.86006,843.17125 L 321.47349,843.17125 L 323.08691,843.17125 L 323.08691,844.02591 L 323.08691,844.88055 L 322.06134,844.88055 L 321.03576,844.88055 L 321.03576,849.26774 L 321.03576,853.65494 L 320.52297,853.65494 L 320.01018,853.65494 L 320.00989,850.72065 z M 310.05442,841.35045 C 309.88941,841.10109 309.7544,840.87034 309.7544,840.83766 C 309.7544,840.80498 313.1388,840.77824 317.2753,840.77824 C 322.52689,840.77824 324.79622,840.81492 324.79622,840.89979 C 324.79622,840.96665 324.66192,841.1974 324.4978,841.41258 L 324.19939,841.80381 L 317.27692,841.80381 L 310.35445,841.80381 L 310.05442,841.35045 z M 313.97067,836.10616 L 313.97067,834.85267 L 314.71136,834.85267 L 315.45205,834.85267 L 315.45205,835.30849 C 315.45205,835.75344 315.44256,835.7643 315.05322,835.7643 L 314.65438,835.7643 L 314.65438,836.56197 L 314.65438,837.35964 L 314.31252,837.35964 L 313.97067,837.35964 L 313.97067,836.10616 z M 316.47763,836.10616 L 316.47763,834.85267 L 317.21832,834.85267 L 317.95902,834.85267 L 317.95902,835.30849 C 317.95902,835.75344 317.94953,835.7643 317.56018,835.7643 L 317.16135,835.7643 L 317.16135,836.56197 L 317.16135,837.35964 L 316.81949,837.35964 L 316.47763,837.35964 L 316.47763,836.10616 z M 319.09855,836.10616 L 319.09855,834.85267 L 319.83925,834.85267 L 320.57995,834.85267 L 320.57995,835.30849 C 320.57995,835.7643 320.57995,835.7643 320.12414,835.7643 L 319.66832,835.7643 L 319.66832,836.56197 C 319.66832,837.33685 319.66019,837.35964 319.38344,837.35964 L 319.09855,837.35964 L 319.09855,836.10616 z M 323.21145,830.6364 L 322.9248,828.58525 L 317.25122,828.58525 C 314.13076,828.58525 311.57764,828.60808 311.57764,828.63598 C 311.57764,828.67821 311.31888,830.51425 311.06686,832.26023 L 311.00519,832.68757 L 317.25164,832.68757 L 323.49811,832.68757 L 323.21145,830.6364 z M 322.45447,827.69004 C 322.30336,827.55387 317.57063,824.72956 317.35477,824.64673 C 317.24646,824.60516 316.18795,825.17878 314.60604,826.13629 C 313.19112,826.99272 312.03346,827.71463 312.03346,827.74052 C 312.03346,827.7664 314.40255,827.78758 317.29809,827.78758 C 320.2258,827.78758 322.51467,827.74428 322.45447,827.69004 z M 316.0788,864.78214 C 315.06904,864.31092 314.31252,863.15678 314.31252,862.08748 C 314.31252,861.49186 314.6686,860.591 315.08813,860.12522 C 316.51743,858.5384 319.15799,858.99224 320.00925,860.97103 C 320.30787,861.66521 320.29106,862.68816 319.9701,863.35322 C 319.27875,864.78576 317.49229,865.44177 316.0788,864.78214 z M 318.44201,863.91515 C 319.11659,863.45291 319.38397,862.93181 319.37973,862.08748 C 319.37679,861.50028 319.31959,861.2623 319.1037,860.93909 C 318.66775,860.28637 318.12928,859.99722 317.33228,859.98786 C 316.50528,859.97816 315.9357,860.28273 315.47287,860.98219 C 315.22178,861.36164 315.16865,861.56778 315.17544,862.13617 C 315.18731,863.12778 315.69579,863.82696 316.64856,864.16174 C 317.09461,864.31846 318.04389,864.18794 318.44201,863.91515 z " id="path2255"/>
  </g>
</svg>